<svg width="19" height="10" viewBox="0 0 19 10" fill="none" xmlns="http://www.w3.org/2000/svg">
<path d="M0.297 7.785C0.285 7.683 0.27 7.626 0.252 7.614C0.24 7.602 0.198 7.608 0.126 7.632C0.048 7.662 0.009 7.644 0.009 7.578C0.003 7.548 0.006 7.527 0.018 7.515C0.03 7.503 0.072 7.485 0.144 7.461C0.186 7.443 0.216 7.431 0.234 7.425C0.258 7.413 0.273 7.398 0.279 7.38C0.291 7.356 0.3 7.32 0.306 7.272C0.312 7.224 0.321 7.152 0.333 7.056C0.351 6.822 0.387 6.576 0.441 6.318C0.501 6.054 0.573 5.799 0.657 5.553C0.747 5.307 0.843 5.076 0.945 4.86C1.053 4.644 1.164 4.461 1.278 4.311C1.332 4.233 1.377 4.17 1.413 4.122C1.455 4.068 1.494 4.023 1.53 3.987C1.566 3.945 1.602 3.906 1.638 3.87C1.674 3.834 1.719 3.792 1.773 3.744C1.863 3.66 1.932 3.603 1.98 3.573C2.028 3.537 2.094 3.501 2.178 3.465C2.298 3.411 2.4 3.381 2.484 3.375C2.568 3.363 2.67 3.378 2.79 3.42C2.898 3.45 2.979 3.48 3.033 3.51C3.093 3.534 3.144 3.564 3.186 3.6C3.228 3.624 3.261 3.66 3.285 3.708C3.315 3.75 3.33 3.786 3.33 3.816C3.33 3.834 3.333 3.846 3.339 3.852C3.357 3.864 3.372 3.924 3.384 4.032C3.402 4.134 3.411 4.227 3.411 4.311C3.417 4.401 3.414 4.524 3.402 4.68C3.39 4.836 3.375 4.986 3.357 5.13C3.345 5.154 3.339 5.184 3.339 5.22C3.339 5.25 3.336 5.277 3.33 5.301C3.33 5.343 3.327 5.391 3.321 5.445C3.315 5.499 3.309 5.541 3.303 5.571C3.297 5.577 3.294 5.595 3.294 5.625C3.294 5.655 3.288 5.685 3.276 5.715C3.27 5.751 3.267 5.784 3.267 5.814C3.267 5.838 3.267 5.853 3.267 5.859C3.261 5.865 3.258 5.88 3.258 5.904C3.258 5.928 3.252 5.955 3.24 5.985C3.228 6.015 3.222 6.048 3.222 6.084C3.222 6.12 3.219 6.147 3.213 6.165C3.213 6.177 3.21 6.195 3.204 6.219C3.198 6.237 3.195 6.252 3.195 6.264C3.195 6.276 3.195 6.297 3.195 6.327C3.195 6.351 3.192 6.378 3.186 6.408C3.186 6.432 3.18 6.462 3.168 6.498C3.162 6.528 3.159 6.558 3.159 6.588C3.153 6.612 3.15 6.639 3.15 6.669C3.15 6.693 3.147 6.711 3.141 6.723C3.129 6.783 3.117 6.87 3.105 6.984C3.099 7.098 3.09 7.221 3.078 7.353C3.072 7.425 3.069 7.512 3.069 7.614C3.069 7.716 3.069 7.818 3.069 7.92C3.075 8.022 3.078 8.118 3.078 8.208C3.084 8.298 3.093 8.367 3.105 8.415C3.117 8.433 3.123 8.454 3.123 8.478C3.123 8.502 3.123 8.52 3.123 8.532C3.141 8.67 3.177 8.805 3.231 8.937C3.285 9.063 3.345 9.168 3.411 9.252C3.435 9.276 3.453 9.291 3.465 9.297C3.483 9.303 3.51 9.306 3.546 9.306C3.666 9.306 3.687 9.339 3.609 9.405C3.567 9.435 3.513 9.456 3.447 9.468C3.387 9.486 3.318 9.486 3.24 9.468C3.036 9.432 2.823 9.21 2.601 8.802C2.541 8.682 2.496 8.547 2.466 8.397C2.436 8.247 2.415 8.046 2.403 7.794V7.434C2.403 7.422 2.379 7.416 2.331 7.416C2.283 7.41 2.193 7.41 2.061 7.416C1.977 7.422 1.899 7.428 1.827 7.434C1.755 7.434 1.707 7.434 1.683 7.434C1.659 7.44 1.623 7.446 1.575 7.452C1.533 7.458 1.491 7.461 1.449 7.461C1.323 7.473 1.221 7.482 1.143 7.488C1.071 7.494 1.014 7.503 0.972 7.515C0.936 7.521 0.912 7.53 0.9 7.542C0.888 7.554 0.879 7.569 0.873 7.587V8.946C0.879 8.946 0.882 8.961 0.882 8.991C0.882 9.021 0.879 9.054 0.873 9.09C0.873 9.126 0.867 9.159 0.855 9.189C0.849 9.225 0.843 9.249 0.837 9.261C0.807 9.285 0.768 9.303 0.72 9.315C0.678 9.333 0.642 9.336 0.612 9.324C0.612 9.318 0.603 9.291 0.585 9.243C0.573 9.201 0.555 9.147 0.531 9.081C0.513 9.015 0.492 8.94 0.468 8.856C0.444 8.772 0.423 8.688 0.405 8.604C0.387 8.508 0.366 8.379 0.342 8.217C0.324 8.055 0.309 7.911 0.297 7.785ZM0.927 7.236L1.026 7.227C1.056 7.221 1.107 7.215 1.179 7.209C1.251 7.203 1.323 7.197 1.395 7.191C1.557 7.173 1.716 7.164 1.872 7.164C2.028 7.164 2.166 7.176 2.286 7.2C2.31 7.206 2.337 7.209 2.367 7.209H2.403C2.415 7.203 2.424 7.164 2.43 7.092C2.436 7.02 2.442 6.933 2.448 6.831C2.466 6.663 2.484 6.501 2.502 6.345C2.526 6.183 2.553 5.994 2.583 5.778C2.613 5.568 2.637 5.388 2.655 5.238C2.679 5.082 2.697 4.947 2.709 4.833C2.721 4.713 2.73 4.608 2.736 4.518C2.742 4.422 2.745 4.329 2.745 4.239C2.745 3.993 2.733 3.843 2.709 3.789C2.703 3.771 2.688 3.765 2.664 3.771C2.64 3.777 2.619 3.792 2.601 3.816L2.547 3.852L2.25 4.14C2.214 4.158 2.193 4.182 2.187 4.212C2.175 4.23 2.163 4.248 2.151 4.266C2.139 4.278 2.118 4.302 2.088 4.338C2.052 4.356 2.034 4.374 2.034 4.392C2.034 4.416 2.004 4.464 1.944 4.536C1.914 4.566 1.89 4.599 1.872 4.635C1.854 4.665 1.839 4.689 1.827 4.707C1.827 4.737 1.818 4.752 1.8 4.752C1.794 4.752 1.791 4.758 1.791 4.77C1.797 4.782 1.797 4.791 1.791 4.797C1.791 4.803 1.791 4.809 1.791 4.815C1.767 4.833 1.743 4.866 1.719 4.914C1.695 4.956 1.683 4.98 1.683 4.986C1.683 5.01 1.668 5.043 1.638 5.085L1.584 5.157C1.59 5.169 1.584 5.19 1.566 5.22C1.542 5.244 1.536 5.256 1.548 5.256C1.554 5.256 1.551 5.274 1.539 5.31C1.503 5.346 1.482 5.388 1.476 5.436C1.464 5.46 1.446 5.496 1.422 5.544C1.404 5.586 1.386 5.631 1.368 5.679C1.35 5.721 1.332 5.76 1.314 5.796C1.302 5.826 1.296 5.844 1.296 5.85C1.284 5.856 1.278 5.868 1.278 5.886C1.278 5.892 1.272 5.913 1.26 5.949C1.26 5.979 1.251 5.997 1.233 6.003C1.233 6.015 1.227 6.03 1.215 6.048C1.203 6.06 1.197 6.075 1.197 6.093C1.191 6.111 1.182 6.144 1.17 6.192C1.164 6.24 1.152 6.288 1.134 6.336C1.116 6.39 1.098 6.438 1.08 6.48C1.068 6.516 1.062 6.543 1.062 6.561C1.05 6.597 1.044 6.624 1.044 6.642C1.038 6.666 1.029 6.702 1.017 6.75C1.011 6.792 1.002 6.84 0.99 6.894C0.978 6.942 0.966 6.987 0.954 7.029C0.948 7.071 0.942 7.101 0.936 7.119L0.927 7.236ZM3.81466 6.822C3.82666 6.708 3.82966 6.642 3.82366 6.624C3.81766 6.6 3.80266 6.585 3.77866 6.579C3.73666 6.561 3.71566 6.516 3.71566 6.444C3.70966 6.366 3.73066 6.297 3.77866 6.237C3.80266 6.207 3.82366 6.189 3.84166 6.183C3.85966 6.171 3.89266 6.168 3.94066 6.174C4.09666 6.186 4.21066 6.234 4.28266 6.318C4.35466 6.396 4.39966 6.531 4.41766 6.723C4.42366 6.771 4.42666 6.81 4.42666 6.84C4.43266 6.87 4.43566 6.888 4.43566 6.894C4.44166 6.906 4.44766 6.963 4.45366 7.065C4.46566 7.161 4.47466 7.278 4.48066 7.416C4.49266 7.596 4.50466 7.752 4.51666 7.884C4.53466 8.01 4.55866 8.133 4.58866 8.253C4.60666 8.331 4.62766 8.394 4.65166 8.442C4.67566 8.49 4.68766 8.505 4.68766 8.487C4.68766 8.481 4.69366 8.466 4.70566 8.442C4.72366 8.418 4.73866 8.391 4.75066 8.361C4.78066 8.331 4.80766 8.289 4.83166 8.235C4.85566 8.181 4.87366 8.136 4.88566 8.1L5.02966 7.821C5.03566 7.803 5.04166 7.785 5.04766 7.767C5.05366 7.749 5.05966 7.734 5.06566 7.722L5.08366 7.668C5.08366 7.662 5.09266 7.632 5.11066 7.578C5.13466 7.524 5.15866 7.467 5.18266 7.407C5.21266 7.347 5.23966 7.293 5.26366 7.245C5.28766 7.191 5.30566 7.158 5.31766 7.146C5.33566 7.122 5.38666 7.11 5.47066 7.11C5.56066 7.104 5.63566 7.113 5.69566 7.137C5.74966 7.149 5.79166 7.197 5.82166 7.281C5.85766 7.365 5.90266 7.533 5.95666 7.785C6.03466 8.139 6.10066 8.367 6.15466 8.469C6.20866 8.565 6.27466 8.589 6.35266 8.541C6.39466 8.511 6.44566 8.463 6.50566 8.397C6.57166 8.331 6.62566 8.268 6.66766 8.208C6.73966 8.112 6.78766 8.04 6.81166 7.992C6.84166 7.944 6.85966 7.911 6.86566 7.893C6.86566 7.881 6.84166 7.845 6.79366 7.785C6.75166 7.719 6.71866 7.677 6.69466 7.659L6.65866 7.578C6.64666 7.536 6.63466 7.512 6.62266 7.506C6.61066 7.5 6.59866 7.482 6.58666 7.452C6.57466 7.416 6.55966 7.377 6.54166 7.335C6.52966 7.287 6.51766 7.239 6.50566 7.191C6.49366 7.143 6.48466 7.098 6.47866 7.056C6.46666 6.948 6.46666 6.84 6.47866 6.732C6.49066 6.624 6.51466 6.522 6.55066 6.426C6.58666 6.324 6.63166 6.234 6.68566 6.156C6.74566 6.072 6.81466 6.003 6.89266 5.949C6.93466 5.919 6.97066 5.901 7.00066 5.895C7.03066 5.889 7.08166 5.889 7.15366 5.895C7.41166 5.895 7.57366 6.003 7.63966 6.219C7.65766 6.273 7.66666 6.351 7.66666 6.453C7.67266 6.555 7.66966 6.666 7.65766 6.786C7.65166 6.906 7.63666 7.029 7.61266 7.155C7.59466 7.275 7.57366 7.383 7.54966 7.479C7.54366 7.515 7.53466 7.557 7.52266 7.605C7.51666 7.647 7.51366 7.677 7.51366 7.695C7.50166 7.749 7.48966 7.776 7.47766 7.776C7.47766 7.776 7.46566 7.794 7.44166 7.83C7.44166 7.86 7.44466 7.884 7.45066 7.902C7.45666 7.914 7.47766 7.926 7.51366 7.938C7.56166 7.95 7.61866 7.947 7.68466 7.929C7.75066 7.911 7.81966 7.878 7.89166 7.83C7.92766 7.806 7.97566 7.764 8.03566 7.704C8.09566 7.644 8.15566 7.581 8.21566 7.515C8.28166 7.443 8.34166 7.374 8.39566 7.308C8.44966 7.236 8.48866 7.179 8.51266 7.137C8.56066 7.065 8.59666 7.029 8.62066 7.029C8.64466 7.023 8.67166 7.026 8.70166 7.038C8.71966 7.05 8.71966 7.083 8.70166 7.137C8.68366 7.191 8.65066 7.257 8.60266 7.335C8.55466 7.407 8.49466 7.488 8.42266 7.578C8.35666 7.662 8.28466 7.743 8.20666 7.821C8.13466 7.887 8.07466 7.941 8.02666 7.983C7.97866 8.025 7.93066 8.058 7.88266 8.082C7.84066 8.1 7.79266 8.112 7.73866 8.118C7.69066 8.124 7.62766 8.127 7.54966 8.127H7.33366L7.27966 8.208C7.26766 8.232 7.25566 8.256 7.24366 8.28C7.23166 8.304 7.21966 8.319 7.20766 8.325C7.18366 8.337 7.17166 8.352 7.17166 8.37C7.17166 8.382 7.15666 8.406 7.12666 8.442C7.10266 8.472 7.03966 8.535 6.93766 8.631C6.85366 8.715 6.79366 8.775 6.75766 8.811C6.72166 8.841 6.70066 8.856 6.69466 8.856C6.67666 8.856 6.66166 8.859 6.64966 8.865C6.63766 8.865 6.61966 8.871 6.59566 8.883C6.57766 8.889 6.55966 8.895 6.54166 8.901C6.48166 8.919 6.39466 8.928 6.28066 8.928C6.17266 8.928 6.07666 8.919 5.99266 8.901C5.83666 8.859 5.71666 8.76 5.63266 8.604C5.55466 8.448 5.49766 8.211 5.46166 7.893C5.44966 7.869 5.44366 7.848 5.44366 7.83C5.44366 7.806 5.44366 7.791 5.44366 7.785C5.43766 7.779 5.42866 7.794 5.41666 7.83C5.41066 7.86 5.39266 7.899 5.36266 7.947C5.35066 8.001 5.33266 8.049 5.30866 8.091C5.29066 8.133 5.27866 8.16 5.27266 8.172C5.26666 8.184 5.25766 8.208 5.24566 8.244C5.23966 8.274 5.23066 8.31 5.21866 8.352C5.18866 8.448 5.15866 8.532 5.12866 8.604C5.09866 8.676 5.07166 8.721 5.04766 8.739C5.04166 8.745 5.02666 8.76 5.00266 8.784C4.97866 8.802 4.95466 8.826 4.93066 8.856C4.89466 8.898 4.86766 8.928 4.84966 8.946C4.83766 8.964 4.81666 8.973 4.78666 8.973C4.76866 8.973 4.73566 8.976 4.68766 8.982C4.63966 8.982 4.58866 8.982 4.53466 8.982C4.48666 8.988 4.43866 8.991 4.39066 8.991C4.34866 8.991 4.31866 8.988 4.30066 8.982C4.24666 8.976 4.18966 8.94 4.12966 8.874C4.06966 8.808 4.02466 8.724 3.99466 8.622C3.94666 8.52 3.90766 8.403 3.87766 8.271C3.84766 8.139 3.82666 8.013 3.81466 7.893C3.80866 7.833 3.80566 7.758 3.80566 7.668C3.79966 7.578 3.79666 7.485 3.79666 7.389C3.79666 7.287 3.79966 7.188 3.80566 7.092C3.80566 6.99 3.80866 6.9 3.81466 6.822ZM7.05466 6.318C7.00666 6.42 6.96766 6.531 6.93766 6.651C6.91366 6.765 6.90766 6.87 6.91966 6.966C6.91966 7.008 6.92566 7.059 6.93766 7.119C6.94966 7.173 6.96166 7.224 6.97366 7.272C6.99166 7.32 7.00666 7.359 7.01866 7.389C7.03666 7.419 7.04866 7.428 7.05466 7.416C7.05466 7.41 7.06066 7.383 7.07266 7.335C7.09066 7.281 7.10866 7.221 7.12666 7.155C7.16866 6.993 7.19866 6.831 7.21666 6.669C7.23466 6.501 7.23766 6.375 7.22566 6.291C7.21366 6.189 7.19566 6.141 7.17166 6.147C7.15366 6.153 7.11466 6.21 7.05466 6.318ZM8.31234 8.676C8.31234 8.658 8.30334 8.634 8.28534 8.604C8.23134 8.502 8.19834 8.376 8.18634 8.226C8.16834 8.07 8.18334 7.866 8.23134 7.614C8.23734 7.578 8.25234 7.521 8.27634 7.443C8.30034 7.365 8.32734 7.287 8.35734 7.209C8.38734 7.131 8.41434 7.062 8.43834 7.002C8.46234 6.942 8.48034 6.912 8.49234 6.912L8.51934 6.885C8.53134 6.873 8.53734 6.861 8.53734 6.849C8.54334 6.837 8.55234 6.822 8.56434 6.804L8.70834 6.651C8.73234 6.639 8.75334 6.624 8.77134 6.606C8.79534 6.588 8.81634 6.576 8.83434 6.57C8.86434 6.522 8.90634 6.48 8.96034 6.444C9.02034 6.408 9.07434 6.384 9.12234 6.372L9.23034 6.327C9.30234 6.297 9.39834 6.288 9.51834 6.3C9.63834 6.306 9.76734 6.33 9.90534 6.372L10.0043 6.399L10.0403 6.327C10.0763 6.273 10.1153 6.237 10.1573 6.219C10.2053 6.207 10.2683 6.201 10.3463 6.201C10.4243 6.201 10.4933 6.213 10.5533 6.237C10.5953 6.249 10.6253 6.264 10.6433 6.282C10.6673 6.294 10.6853 6.33 10.6973 6.39C10.7093 6.45 10.7183 6.543 10.7243 6.669C10.7303 6.789 10.7393 6.963 10.7513 7.191C10.7633 7.263 10.7693 7.329 10.7693 7.389C10.7693 7.443 10.7723 7.476 10.7783 7.488C10.7783 7.5 10.7783 7.527 10.7783 7.569C10.7783 7.605 10.7843 7.638 10.7963 7.668C10.8083 7.752 10.8263 7.833 10.8503 7.911C10.8743 7.989 10.8983 8.052 10.9223 8.1C10.9343 8.124 10.9463 8.148 10.9583 8.172C10.9763 8.19 10.9853 8.202 10.9853 8.208C10.9853 8.238 11.0003 8.238 11.0303 8.208C11.0783 8.142 11.1203 8.079 11.1563 8.019C11.1983 7.959 11.2403 7.887 11.2823 7.803C11.3123 7.755 11.3363 7.716 11.3543 7.686C11.3723 7.656 11.3813 7.635 11.3813 7.623C11.3933 7.617 11.4083 7.593 11.4263 7.551C11.4443 7.509 11.4653 7.464 11.4893 7.416C11.5553 7.302 11.6093 7.209 11.6513 7.137C11.6993 7.065 11.7443 7.029 11.7863 7.029C11.8343 7.029 11.8583 7.038 11.8583 7.056C11.8643 7.068 11.8553 7.092 11.8313 7.128C11.7893 7.158 11.7683 7.182 11.7683 7.2C11.7683 7.206 11.7653 7.221 11.7593 7.245C11.7593 7.263 11.7533 7.284 11.7413 7.308C11.7233 7.332 11.7023 7.383 11.6783 7.461C11.6603 7.533 11.6453 7.602 11.6333 7.668C11.5673 7.95 11.5103 8.118 11.4623 8.172C11.4443 8.202 11.4353 8.223 11.4353 8.235C11.4233 8.253 11.3963 8.292 11.3543 8.352C11.3123 8.406 11.2763 8.442 11.2463 8.46C11.2343 8.472 11.2193 8.484 11.2013 8.496C11.1833 8.502 11.1683 8.508 11.1563 8.514C11.1263 8.514 11.0993 8.517 11.0753 8.523C11.0513 8.529 11.0273 8.532 11.0033 8.532C10.9013 8.556 10.7963 8.559 10.6883 8.541C10.5803 8.517 10.4993 8.472 10.4453 8.406C10.3793 8.34 10.3223 8.25 10.2743 8.136C10.2263 8.022 10.1903 7.908 10.1663 7.794C10.1543 7.722 10.1423 7.677 10.1303 7.659C10.1183 7.641 10.1123 7.65 10.1123 7.686C10.1123 7.71 10.1033 7.722 10.0853 7.722C10.0793 7.734 10.0763 7.749 10.0763 7.767C10.0763 7.779 10.0703 7.797 10.0583 7.821C10.0523 7.833 10.0433 7.854 10.0313 7.884C10.0253 7.914 10.0163 7.944 10.0043 7.974C9.99234 8.004 9.97734 8.031 9.95934 8.055C9.94734 8.079 9.93834 8.094 9.93234 8.1C9.92634 8.1 9.92334 8.115 9.92334 8.145C9.92334 8.175 9.91134 8.202 9.88734 8.226C9.88134 8.238 9.87534 8.25 9.86934 8.262C9.86334 8.274 9.86034 8.286 9.86034 8.298C9.86034 8.304 9.85734 8.307 9.85134 8.307C9.85134 8.307 9.85134 8.31 9.85134 8.316V8.334C9.83934 8.334 9.83334 8.34 9.83334 8.352C9.83334 8.37 9.82734 8.382 9.81534 8.388L9.75234 8.487C9.74034 8.517 9.73134 8.535 9.72534 8.541L9.70734 8.559C9.68934 8.559 9.68634 8.565 9.69834 8.577C9.70434 8.583 9.69534 8.601 9.67134 8.631C9.65334 8.655 9.62934 8.682 9.59934 8.712C9.56934 8.742 9.53934 8.769 9.50934 8.793C9.47934 8.817 9.45834 8.832 9.44634 8.838C9.41634 8.856 9.40734 8.865 9.41934 8.865C9.41934 8.877 9.38934 8.898 9.32934 8.928C9.27534 8.952 9.23034 8.958 9.19434 8.946C9.18834 8.946 9.17634 8.949 9.15834 8.955C9.14034 8.961 9.11934 8.964 9.09534 8.964C9.01134 8.976 8.95134 8.985 8.91534 8.991C8.87934 8.991 8.82834 8.985 8.76234 8.973C8.71434 8.973 8.65434 8.958 8.58234 8.928C8.51034 8.898 8.45334 8.868 8.41134 8.838C8.39334 8.814 8.37234 8.787 8.34834 8.757C8.32434 8.721 8.31234 8.694 8.31234 8.676ZM8.87034 7.722C8.85834 7.758 8.85234 7.812 8.85234 7.884C8.85234 7.956 8.85534 8.028 8.86134 8.1C8.86734 8.172 8.87634 8.238 8.88834 8.298C8.90034 8.358 8.91234 8.394 8.92434 8.406C8.93634 8.406 8.94534 8.415 8.95134 8.433C8.96334 8.451 8.97534 8.469 8.98734 8.487C9.03534 8.553 9.08034 8.568 9.12234 8.532L9.16734 8.487C9.16734 8.451 9.17634 8.43 9.19434 8.424C9.24234 8.364 9.30234 8.256 9.37434 8.1C9.44634 7.938 9.51534 7.761 9.58134 7.569C9.61134 7.479 9.64434 7.38 9.68034 7.272C9.71634 7.164 9.74034 7.086 9.75234 7.038C9.80634 6.912 9.82434 6.84 9.80634 6.822C9.78834 6.822 9.77934 6.807 9.77934 6.777C9.77934 6.771 9.77634 6.768 9.77034 6.768C9.77034 6.768 9.77034 6.765 9.77034 6.759V6.75C9.74634 6.75 9.73434 6.732 9.73434 6.696L9.69834 6.624C9.68034 6.612 9.65634 6.603 9.62634 6.597C9.59634 6.591 9.58734 6.594 9.59934 6.606C9.59934 6.618 9.59334 6.624 9.58134 6.624C9.56334 6.624 9.54534 6.633 9.52734 6.651L9.38334 6.75C9.35334 6.75 9.33834 6.759 9.33834 6.777H9.34734C9.34134 6.777 9.35034 6.771 9.37434 6.759C9.36834 6.771 9.35934 6.783 9.34734 6.795C9.33534 6.807 9.32334 6.819 9.31134 6.831C9.29934 6.843 9.28734 6.858 9.27534 6.876C9.24534 6.906 9.21534 6.942 9.18534 6.984C9.15534 7.02 9.13434 7.047 9.12234 7.065C9.11634 7.083 9.10434 7.11 9.08634 7.146C9.06834 7.176 9.05334 7.2 9.04134 7.218C9.02934 7.236 9.01734 7.257 9.00534 7.281C8.99934 7.293 8.99634 7.302 8.99634 7.308V7.326C8.99634 7.332 8.99334 7.338 8.98734 7.344C8.98734 7.35 8.98734 7.356 8.98734 7.362C8.97534 7.386 8.95734 7.425 8.93334 7.479C8.91534 7.527 8.90634 7.572 8.90634 7.614C8.89434 7.62 8.88534 7.635 8.87934 7.659C8.87334 7.683 8.87034 7.704 8.87034 7.722ZM11.4837 8.658C11.4837 8.646 11.4777 8.634 11.4657 8.622C11.4537 8.61 11.4417 8.589 11.4297 8.559C11.3877 8.499 11.3547 8.406 11.3307 8.28C11.3067 8.154 11.2947 8.04 11.2947 7.938C11.3127 7.788 11.3577 7.623 11.4297 7.443C11.5017 7.263 11.5887 7.101 11.6907 6.957C11.7147 6.921 11.7447 6.882 11.7807 6.84C11.8227 6.792 11.8617 6.747 11.8977 6.705C11.9397 6.663 11.9727 6.627 11.9967 6.597C12.0267 6.567 12.0447 6.552 12.0507 6.552C12.0627 6.552 12.0807 6.54 12.1047 6.516C12.1227 6.492 12.1587 6.465 12.2127 6.435C12.2727 6.399 12.3387 6.366 12.4107 6.336C12.4827 6.306 12.5547 6.282 12.6267 6.264C12.6987 6.24 12.7587 6.228 12.8067 6.228C12.8907 6.216 12.9357 6.204 12.9417 6.192C12.9537 6.18 12.9507 6.132 12.9327 6.048C12.9027 5.886 12.8757 5.691 12.8517 5.463C12.8277 5.229 12.8067 4.989 12.7887 4.743C12.7767 4.497 12.7677 4.257 12.7617 4.023C12.7557 3.783 12.7587 3.573 12.7707 3.393C12.8427 2.631 13.0467 1.986 13.3827 1.458C13.4187 1.416 13.4637 1.365 13.5177 1.305C13.5717 1.239 13.6257 1.179 13.6797 1.125C13.7337 1.065 13.7847 1.014 13.8327 0.972C13.8807 0.924 13.9167 0.894 13.9407 0.881999C14.0127 0.845999 14.0697 0.818999 14.1117 0.800999C14.1537 0.783 14.1927 0.768 14.2287 0.755999C14.2647 0.744 14.2977 0.735 14.3277 0.729C14.3637 0.723 14.4087 0.717 14.4627 0.710999C14.5047 0.710999 14.5407 0.710999 14.5707 0.710999C14.6067 0.710999 14.6367 0.714 14.6607 0.72C14.6907 0.72 14.7207 0.726 14.7507 0.738C14.7867 0.744 14.8287 0.753 14.8767 0.765C14.9427 0.788999 15.0087 0.818999 15.0747 0.855C15.1407 0.885 15.2007 0.921 15.2547 0.962999C15.3207 1.011 15.3657 1.05 15.3897 1.08C15.4137 1.104 15.4467 1.155 15.4887 1.233C15.5187 1.281 15.5427 1.329 15.5607 1.377C15.5847 1.425 15.5967 1.458 15.5967 1.476L15.6417 1.683C15.6477 1.719 15.6537 1.776 15.6597 1.854C15.6657 1.932 15.6687 2.016 15.6687 2.106C15.6687 2.19 15.6657 2.271 15.6597 2.349C15.6537 2.427 15.6477 2.481 15.6417 2.511C15.6417 2.523 15.6387 2.547 15.6327 2.583C15.6267 2.613 15.6237 2.646 15.6237 2.682C15.6237 2.706 15.6207 2.733 15.6147 2.763C15.6087 2.793 15.6057 2.817 15.6057 2.835C15.5937 2.901 15.5817 2.949 15.5697 2.979C15.5637 3.009 15.5607 3.039 15.5607 3.069C15.5487 3.111 15.5277 3.195 15.4977 3.321C15.4737 3.441 15.4557 3.54 15.4437 3.618C15.4317 3.654 15.4227 3.687 15.4167 3.717C15.4107 3.747 15.4077 3.765 15.4077 3.771C15.4017 3.789 15.3927 3.819 15.3807 3.861C15.3687 3.903 15.3567 3.945 15.3447 3.987C15.3327 4.029 15.3207 4.068 15.3087 4.104C15.2967 4.134 15.2877 4.152 15.2817 4.158C15.2817 4.17 15.2787 4.185 15.2727 4.203C15.2667 4.215 15.2607 4.23 15.2547 4.248C15.2547 4.278 15.2457 4.314 15.2277 4.356C15.2157 4.392 15.2007 4.428 15.1827 4.464C15.1707 4.494 15.1617 4.527 15.1557 4.563C15.1497 4.599 15.1407 4.623 15.1287 4.635C15.1287 4.647 15.1257 4.665 15.1197 4.689C15.1137 4.713 15.1047 4.74 15.0927 4.77C15.0447 4.848 15.0147 4.905 15.0027 4.941C14.9967 4.977 14.9907 5.01 14.9847 5.04C14.9727 5.076 14.9457 5.13 14.9037 5.202C14.8677 5.274 14.8437 5.31 14.8317 5.31V5.364C14.8317 5.394 14.8257 5.415 14.8137 5.427C14.7957 5.439 14.7777 5.46 14.7597 5.49C14.7477 5.52 14.7357 5.547 14.7237 5.571C14.6997 5.649 14.6847 5.688 14.6787 5.688C14.6667 5.688 14.6607 5.697 14.6607 5.715C14.6607 5.733 14.6517 5.763 14.6337 5.805C14.6157 5.847 14.5977 5.868 14.5797 5.868L14.5707 5.877C14.5647 5.883 14.5617 5.892 14.5617 5.904C14.5617 5.922 14.5527 5.949 14.5347 5.985C14.5227 5.997 14.5017 6.039 14.4717 6.111C14.4417 6.183 14.4087 6.261 14.3727 6.345C14.3247 6.429 14.2797 6.51 14.2377 6.588C14.1957 6.66 14.1657 6.711 14.1477 6.741C14.1057 6.819 14.0727 6.882 14.0487 6.93C14.0247 6.978 14.0037 7.032 13.9857 7.092C13.9737 7.14 13.9677 7.173 13.9677 7.191C13.9677 7.209 13.9737 7.233 13.9857 7.263C14.0097 7.311 14.0217 7.335 14.0217 7.335C14.0217 7.347 14.0247 7.368 14.0307 7.398C14.0427 7.422 14.0547 7.449 14.0667 7.479C14.0787 7.497 14.0847 7.512 14.0847 7.524C14.0907 7.536 14.0967 7.548 14.1027 7.56C14.1087 7.572 14.1117 7.584 14.1117 7.596C14.1057 7.596 14.1477 7.668 14.2377 7.812C14.2617 7.86 14.3067 7.92 14.3727 7.992C14.4387 8.058 14.4987 8.103 14.5527 8.127C14.5827 8.157 14.6097 8.175 14.6337 8.181C14.6637 8.187 14.7117 8.199 14.7777 8.217C14.8077 8.223 14.8497 8.193 14.9037 8.127C14.9577 8.061 15.0147 7.977 15.0747 7.875C15.1407 7.767 15.2037 7.65 15.2637 7.524C15.3237 7.392 15.3717 7.263 15.4077 7.137C15.4377 7.047 15.4737 6.987 15.5157 6.957C15.5637 6.921 15.5967 6.915 15.6147 6.939C15.6327 6.951 15.6207 7.044 15.5787 7.218C15.5427 7.386 15.4347 7.65 15.2547 8.01C15.1887 8.148 15.1077 8.256 15.0117 8.334C14.9217 8.412 14.8167 8.478 14.6967 8.532C14.5767 8.58 14.4537 8.601 14.3277 8.595C14.2077 8.589 14.0937 8.556 13.9857 8.496C13.9497 8.466 13.8897 8.409 13.8057 8.325C13.7277 8.241 13.6677 8.16 13.6257 8.082C13.6137 8.064 13.6017 8.049 13.5897 8.037C13.5837 8.019 13.5777 8.004 13.5717 7.992C13.5597 7.974 13.5537 7.959 13.5537 7.947C13.5477 7.947 13.5327 7.968 13.5087 8.01C13.4907 8.046 13.4697 8.088 13.4457 8.136C13.4217 8.184 13.4007 8.232 13.3827 8.28C13.3647 8.322 13.3557 8.346 13.3557 8.352C13.3557 8.358 13.3527 8.361 13.3467 8.361H13.3377C13.3197 8.361 13.3017 8.382 13.2837 8.424C13.2717 8.454 13.2447 8.493 13.2027 8.541C13.1607 8.589 13.1127 8.64 13.0587 8.694C13.0107 8.742 12.9627 8.784 12.9147 8.82C12.8667 8.856 12.8367 8.874 12.8247 8.874C12.8127 8.874 12.8007 8.877 12.7887 8.883C12.7767 8.889 12.7707 8.898 12.7707 8.91C12.7647 8.934 12.7527 8.946 12.7347 8.946C12.7107 8.946 12.6987 8.955 12.6987 8.973C12.6987 8.985 12.6777 8.994 12.6357 9C12.5937 9.006 12.5427 9.012 12.4827 9.018C12.4227 9.024 12.3567 9.027 12.2847 9.027C12.2187 9.027 12.1587 9.021 12.1047 9.009C12.0687 9.009 12.0297 9.006 11.9877 9C11.9457 8.994 11.9187 8.985 11.9067 8.973C11.8587 8.961 11.7957 8.931 11.7177 8.883C11.6457 8.829 11.6007 8.787 11.5827 8.757C11.5767 8.751 11.5677 8.742 11.5557 8.73C11.5437 8.718 11.5317 8.709 11.5197 8.703C11.4957 8.679 11.4837 8.664 11.4837 8.658ZM13.5087 3.321C13.4967 3.375 13.4847 3.465 13.4727 3.591C13.4667 3.717 13.4607 3.855 13.4547 4.005C13.4547 4.149 13.4547 4.296 13.4547 4.446C13.4547 4.59 13.4607 4.71 13.4727 4.806C13.4907 4.974 13.5027 5.091 13.5087 5.157C13.5147 5.223 13.5237 5.28 13.5357 5.328C13.5357 5.364 13.5387 5.403 13.5447 5.445C13.5507 5.487 13.5597 5.523 13.5717 5.553C13.5717 5.583 13.5747 5.613 13.5807 5.643C13.5867 5.673 13.5897 5.691 13.5897 5.697C13.5897 5.709 13.5897 5.736 13.5897 5.778C13.5897 5.82 13.5957 5.862 13.6077 5.904C13.6197 5.952 13.6317 6 13.6437 6.048C13.6557 6.09 13.6617 6.117 13.6617 6.129C13.6677 6.153 13.6767 6.204 13.6887 6.282C13.7007 6.354 13.7127 6.405 13.7247 6.435C13.7247 6.441 13.7277 6.45 13.7337 6.462C13.7337 6.474 13.7337 6.483 13.7337 6.489C13.7397 6.495 13.7427 6.504 13.7427 6.516L13.7787 6.597L13.8147 6.516C13.8207 6.486 13.8297 6.45 13.8417 6.408C13.8597 6.366 13.8777 6.33 13.8957 6.3C13.9077 6.264 13.9257 6.207 13.9497 6.129C13.9797 6.051 14.0067 5.97 14.0307 5.886C14.0667 5.802 14.1027 5.721 14.1387 5.643C14.1747 5.565 14.2017 5.508 14.2197 5.472C14.2437 5.418 14.2647 5.376 14.2827 5.346C14.3007 5.31 14.3157 5.277 14.3277 5.247C14.3397 5.211 14.3517 5.172 14.3637 5.13C14.3817 5.088 14.4027 5.031 14.4267 4.959C14.4627 4.881 14.4957 4.803 14.5257 4.725C14.5617 4.641 14.5857 4.581 14.5977 4.545C14.6397 4.485 14.6607 4.44 14.6607 4.41C14.6607 4.398 14.6637 4.383 14.6697 4.365C14.6757 4.341 14.6847 4.314 14.6967 4.284C14.7147 4.248 14.7357 4.191 14.7597 4.113C14.7897 4.029 14.8167 3.939 14.8407 3.843C14.8707 3.741 14.8977 3.642 14.9217 3.546C14.9517 3.444 14.9757 3.36 14.9937 3.294C15.0177 3.162 15.0387 2.997 15.0567 2.799C15.0807 2.595 15.0927 2.418 15.0927 2.268C15.0927 2.184 15.0867 2.1 15.0747 2.016C15.0687 1.926 15.0567 1.815 15.0387 1.683C15.0207 1.599 14.9967 1.518 14.9667 1.44C14.9427 1.356 14.9127 1.296 14.8767 1.26C14.8707 1.254 14.8647 1.248 14.8587 1.242C14.8587 1.23 14.8557 1.218 14.8497 1.206C14.8437 1.194 14.8377 1.185 14.8317 1.179C14.8317 1.161 14.8137 1.143 14.7777 1.125C14.7417 1.113 14.7177 1.107 14.7057 1.107C14.6997 1.107 14.6847 1.113 14.6607 1.125C14.6367 1.149 14.6157 1.161 14.5977 1.161C14.5857 1.161 14.5647 1.173 14.5347 1.197C14.5047 1.215 14.4717 1.239 14.4357 1.269C14.3997 1.293 14.3637 1.32 14.3277 1.35C14.2977 1.38 14.2737 1.404 14.2557 1.422C14.2197 1.452 14.1777 1.5 14.1297 1.566C14.0817 1.632 14.0337 1.701 13.9857 1.773C13.9737 1.785 13.9647 1.797 13.9587 1.809C13.9587 1.821 13.9557 1.833 13.9497 1.845C13.9437 1.857 13.9377 1.866 13.9317 1.872C13.9197 1.884 13.9017 1.911 13.8777 1.953C13.8597 1.989 13.8387 2.046 13.8147 2.124C13.7967 2.142 13.7787 2.169 13.7607 2.205C13.7487 2.241 13.7427 2.265 13.7427 2.277C13.7247 2.313 13.7127 2.34 13.7067 2.358C13.7067 2.376 13.7007 2.4 13.6887 2.43C13.6767 2.442 13.6677 2.463 13.6617 2.493C13.6617 2.523 13.6557 2.55 13.6437 2.574C13.6317 2.604 13.6197 2.634 13.6077 2.664C13.5957 2.694 13.5897 2.715 13.5897 2.727C13.5897 2.745 13.5897 2.772 13.5897 2.808C13.5897 2.838 13.5837 2.874 13.5717 2.916C13.5597 2.964 13.5477 3.012 13.5357 3.06C13.5297 3.108 13.5267 3.147 13.5267 3.177C13.5267 3.201 13.5237 3.231 13.5177 3.267C13.5117 3.297 13.5087 3.315 13.5087 3.321ZM12.0687 7.965C12.0507 8.271 12.1107 8.502 12.2487 8.658C12.2907 8.694 12.3297 8.709 12.3657 8.703C12.4017 8.697 12.4797 8.655 12.5997 8.577C12.6477 8.535 12.6987 8.49 12.7527 8.442C12.8127 8.388 12.8607 8.34 12.8967 8.298C12.9267 8.262 12.9627 8.217 13.0047 8.163C13.0527 8.103 13.0977 8.043 13.1397 7.983C13.1817 7.917 13.2207 7.854 13.2567 7.794C13.2927 7.728 13.3197 7.677 13.3377 7.641C13.3617 7.611 13.3737 7.587 13.3737 7.569C13.3737 7.545 13.3617 7.509 13.3377 7.461C13.2897 7.335 13.2447 7.209 13.2027 7.083C13.1667 6.957 13.1337 6.843 13.1037 6.741C13.0797 6.651 13.0647 6.6 13.0587 6.588C13.0527 6.57 13.0347 6.561 13.0047 6.561C12.9567 6.561 12.9267 6.573 12.9147 6.597C12.9027 6.603 12.8877 6.609 12.8697 6.615C12.8577 6.621 12.8427 6.627 12.8247 6.633C12.7947 6.633 12.7647 6.663 12.7347 6.723C12.7167 6.741 12.6957 6.756 12.6717 6.768C12.6597 6.774 12.6507 6.78 12.6447 6.786C12.6387 6.786 12.6237 6.798 12.5997 6.822C12.5997 6.84 12.5937 6.855 12.5817 6.867C12.5697 6.873 12.5577 6.876 12.5457 6.876C12.5277 6.876 12.5187 6.882 12.5187 6.894C12.5187 6.912 12.5127 6.927 12.5007 6.939C12.4767 6.951 12.4377 7.002 12.3837 7.092C12.3297 7.182 12.2847 7.269 12.2487 7.353C12.1467 7.563 12.0867 7.767 12.0687 7.965ZM15.2557 8.676C15.2557 8.658 15.2467 8.634 15.2287 8.604C15.1747 8.502 15.1417 8.376 15.1297 8.226C15.1117 8.07 15.1267 7.866 15.1747 7.614C15.1807 7.578 15.1957 7.521 15.2197 7.443C15.2437 7.365 15.2707 7.287 15.3007 7.209C15.3307 7.131 15.3577 7.062 15.3817 7.002C15.4057 6.942 15.4237 6.912 15.4357 6.912L15.4627 6.885C15.4747 6.873 15.4807 6.861 15.4807 6.849C15.4867 6.837 15.4957 6.822 15.5077 6.804L15.6517 6.651C15.6757 6.639 15.6967 6.624 15.7147 6.606C15.7387 6.588 15.7597 6.576 15.7777 6.57C15.8077 6.522 15.8497 6.48 15.9037 6.444C15.9637 6.408 16.0177 6.384 16.0657 6.372L16.1737 6.327C16.2457 6.297 16.3417 6.288 16.4617 6.3C16.5817 6.306 16.7107 6.33 16.8487 6.372L16.9477 6.399L16.9837 6.327C17.0197 6.273 17.0587 6.237 17.1007 6.219C17.1487 6.207 17.2117 6.201 17.2897 6.201C17.3677 6.201 17.4367 6.213 17.4967 6.237C17.5387 6.249 17.5687 6.264 17.5867 6.282C17.6107 6.294 17.6287 6.33 17.6407 6.39C17.6527 6.45 17.6617 6.543 17.6677 6.669C17.6737 6.789 17.6827 6.963 17.6947 7.191C17.7067 7.263 17.7127 7.329 17.7127 7.389C17.7127 7.443 17.7157 7.476 17.7217 7.488C17.7217 7.5 17.7217 7.527 17.7217 7.569C17.7217 7.605 17.7277 7.638 17.7397 7.668C17.7517 7.752 17.7697 7.833 17.7937 7.911C17.8177 7.989 17.8417 8.052 17.8657 8.1C17.8777 8.124 17.8897 8.148 17.9017 8.172C17.9197 8.19 17.9287 8.202 17.9287 8.208C17.9287 8.238 17.9437 8.238 17.9737 8.208C18.0217 8.142 18.0637 8.079 18.0997 8.019C18.1417 7.959 18.1837 7.887 18.2257 7.803C18.2557 7.755 18.2797 7.716 18.2977 7.686C18.3157 7.656 18.3247 7.635 18.3247 7.623C18.3367 7.617 18.3517 7.593 18.3697 7.551C18.3877 7.509 18.4087 7.464 18.4327 7.416C18.4987 7.302 18.5527 7.209 18.5947 7.137C18.6427 7.065 18.6877 7.029 18.7297 7.029C18.7777 7.029 18.8017 7.038 18.8017 7.056C18.8077 7.068 18.7987 7.092 18.7747 7.128C18.7327 7.158 18.7117 7.182 18.7117 7.2C18.7117 7.206 18.7087 7.221 18.7027 7.245C18.7027 7.263 18.6967 7.284 18.6847 7.308C18.6667 7.332 18.6457 7.383 18.6217 7.461C18.6037 7.533 18.5887 7.602 18.5767 7.668C18.5107 7.95 18.4537 8.118 18.4057 8.172C18.3877 8.202 18.3787 8.223 18.3787 8.235C18.3667 8.253 18.3397 8.292 18.2977 8.352C18.2557 8.406 18.2197 8.442 18.1897 8.46C18.1777 8.472 18.1627 8.484 18.1447 8.496C18.1267 8.502 18.1117 8.508 18.0997 8.514C18.0697 8.514 18.0427 8.517 18.0187 8.523C17.9947 8.529 17.9707 8.532 17.9467 8.532C17.8447 8.556 17.7397 8.559 17.6317 8.541C17.5237 8.517 17.4427 8.472 17.3887 8.406C17.3227 8.34 17.2657 8.25 17.2177 8.136C17.1697 8.022 17.1337 7.908 17.1097 7.794C17.0977 7.722 17.0857 7.677 17.0737 7.659C17.0617 7.641 17.0557 7.65 17.0557 7.686C17.0557 7.71 17.0467 7.722 17.0287 7.722C17.0227 7.734 17.0197 7.749 17.0197 7.767C17.0197 7.779 17.0137 7.797 17.0017 7.821C16.9957 7.833 16.9867 7.854 16.9747 7.884C16.9687 7.914 16.9597 7.944 16.9477 7.974C16.9357 8.004 16.9207 8.031 16.9027 8.055C16.8907 8.079 16.8817 8.094 16.8757 8.1C16.8697 8.1 16.8667 8.115 16.8667 8.145C16.8667 8.175 16.8547 8.202 16.8307 8.226C16.8247 8.238 16.8187 8.25 16.8127 8.262C16.8067 8.274 16.8037 8.286 16.8037 8.298C16.8037 8.304 16.8007 8.307 16.7947 8.307C16.7947 8.307 16.7947 8.31 16.7947 8.316V8.334C16.7827 8.334 16.7767 8.34 16.7767 8.352C16.7767 8.37 16.7707 8.382 16.7587 8.388L16.6957 8.487C16.6837 8.517 16.6747 8.535 16.6687 8.541L16.6507 8.559C16.6327 8.559 16.6297 8.565 16.6417 8.577C16.6477 8.583 16.6387 8.601 16.6147 8.631C16.5967 8.655 16.5727 8.682 16.5427 8.712C16.5127 8.742 16.4827 8.769 16.4527 8.793C16.4227 8.817 16.4017 8.832 16.3897 8.838C16.3597 8.856 16.3507 8.865 16.3627 8.865C16.3627 8.877 16.3327 8.898 16.2727 8.928C16.2187 8.952 16.1737 8.958 16.1377 8.946C16.1317 8.946 16.1197 8.949 16.1017 8.955C16.0837 8.961 16.0627 8.964 16.0387 8.964C15.9547 8.976 15.8947 8.985 15.8587 8.991C15.8227 8.991 15.7717 8.985 15.7057 8.973C15.6577 8.973 15.5977 8.958 15.5257 8.928C15.4537 8.898 15.3967 8.868 15.3547 8.838C15.3367 8.814 15.3157 8.787 15.2917 8.757C15.2677 8.721 15.2557 8.694 15.2557 8.676ZM15.8137 7.722C15.8017 7.758 15.7957 7.812 15.7957 7.884C15.7957 7.956 15.7987 8.028 15.8047 8.1C15.8107 8.172 15.8197 8.238 15.8317 8.298C15.8437 8.358 15.8557 8.394 15.8677 8.406C15.8797 8.406 15.8887 8.415 15.8947 8.433C15.9067 8.451 15.9187 8.469 15.9307 8.487C15.9787 8.553 16.0237 8.568 16.0657 8.532L16.1107 8.487C16.1107 8.451 16.1197 8.43 16.1377 8.424C16.1857 8.364 16.2457 8.256 16.3177 8.1C16.3897 7.938 16.4587 7.761 16.5247 7.569C16.5547 7.479 16.5877 7.38 16.6237 7.272C16.6597 7.164 16.6837 7.086 16.6957 7.038C16.7497 6.912 16.7677 6.84 16.7497 6.822C16.7317 6.822 16.7227 6.807 16.7227 6.777C16.7227 6.771 16.7197 6.768 16.7137 6.768C16.7137 6.768 16.7137 6.765 16.7137 6.759V6.75C16.6897 6.75 16.6777 6.732 16.6777 6.696L16.6417 6.624C16.6237 6.612 16.5997 6.603 16.5697 6.597C16.5397 6.591 16.5307 6.594 16.5427 6.606C16.5427 6.618 16.5367 6.624 16.5247 6.624C16.5067 6.624 16.4887 6.633 16.4707 6.651L16.3267 6.75C16.2967 6.75 16.2817 6.759 16.2817 6.777H16.2907C16.2847 6.777 16.2937 6.771 16.3177 6.759C16.3117 6.771 16.3027 6.783 16.2907 6.795C16.2787 6.807 16.2667 6.819 16.2547 6.831C16.2427 6.843 16.2307 6.858 16.2187 6.876C16.1887 6.906 16.1587 6.942 16.1287 6.984C16.0987 7.02 16.0777 7.047 16.0657 7.065C16.0597 7.083 16.0477 7.11 16.0297 7.146C16.0117 7.176 15.9967 7.2 15.9847 7.218C15.9727 7.236 15.9607 7.257 15.9487 7.281C15.9427 7.293 15.9397 7.302 15.9397 7.308V7.326C15.9397 7.332 15.9367 7.338 15.9307 7.344C15.9307 7.35 15.9307 7.356 15.9307 7.362C15.9187 7.386 15.9007 7.425 15.8767 7.479C15.8587 7.527 15.8497 7.572 15.8497 7.614C15.8377 7.62 15.8287 7.635 15.8227 7.659C15.8167 7.683 15.8137 7.704 15.8137 7.722Z" fill="black"/>
</svg>
