<svg width="20" height="10" viewBox="0 0 20 10" fill="none" xmlns="http://www.w3.org/2000/svg">
<path d="M1.00696 7.785C0.994961 7.683 0.979961 7.626 0.961961 7.614C0.949961 7.602 0.907961 7.608 0.835961 7.632C0.757961 7.662 0.718961 7.644 0.718961 7.578C0.712961 7.548 0.715961 7.527 0.727961 7.515C0.739961 7.503 0.781961 7.485 0.853961 7.461C0.895961 7.443 0.925961 7.431 0.943961 7.425C0.967961 7.413 0.982961 7.398 0.988961 7.38C1.00096 7.356 1.00996 7.32 1.01596 7.272C1.02196 7.224 1.03096 7.152 1.04296 7.056C1.06096 6.822 1.09696 6.576 1.15096 6.318C1.21096 6.054 1.28296 5.799 1.36696 5.553C1.45696 5.307 1.55296 5.076 1.65496 4.86C1.76296 4.644 1.87396 4.461 1.98796 4.311C2.04196 4.233 2.08696 4.17 2.12296 4.122C2.16496 4.068 2.20396 4.023 2.23996 3.987C2.27596 3.945 2.31196 3.906 2.34796 3.87C2.38396 3.834 2.42896 3.792 2.48296 3.744C2.57296 3.66 2.64196 3.603 2.68996 3.573C2.73796 3.537 2.80396 3.501 2.88796 3.465C3.00796 3.411 3.10996 3.381 3.19396 3.375C3.27796 3.363 3.37996 3.378 3.49996 3.42C3.60796 3.45 3.68896 3.48 3.74296 3.51C3.80296 3.534 3.85396 3.564 3.89596 3.6C3.93796 3.624 3.97096 3.66 3.99496 3.708C4.02496 3.75 4.03996 3.786 4.03996 3.816C4.03996 3.834 4.04296 3.846 4.04896 3.852C4.06696 3.864 4.08196 3.924 4.09396 4.032C4.11196 4.134 4.12096 4.227 4.12096 4.311C4.12696 4.401 4.12396 4.524 4.11196 4.68C4.09996 4.836 4.08496 4.986 4.06696 5.13C4.05496 5.154 4.04896 5.184 4.04896 5.22C4.04896 5.25 4.04596 5.277 4.03996 5.301C4.03996 5.343 4.03696 5.391 4.03096 5.445C4.02496 5.499 4.01896 5.541 4.01296 5.571C4.00696 5.577 4.00396 5.595 4.00396 5.625C4.00396 5.655 3.99796 5.685 3.98596 5.715C3.97996 5.751 3.97696 5.784 3.97696 5.814C3.97696 5.838 3.97696 5.853 3.97696 5.859C3.97096 5.865 3.96796 5.88 3.96796 5.904C3.96796 5.928 3.96196 5.955 3.94996 5.985C3.93796 6.015 3.93196 6.048 3.93196 6.084C3.93196 6.12 3.92896 6.147 3.92296 6.165C3.92296 6.177 3.91996 6.195 3.91396 6.219C3.90796 6.237 3.90496 6.252 3.90496 6.264C3.90496 6.276 3.90496 6.297 3.90496 6.327C3.90496 6.351 3.90196 6.378 3.89596 6.408C3.89596 6.432 3.88996 6.462 3.87796 6.498C3.87196 6.528 3.86896 6.558 3.86896 6.588C3.86296 6.612 3.85996 6.639 3.85996 6.669C3.85996 6.693 3.85696 6.711 3.85096 6.723C3.83896 6.783 3.82696 6.87 3.81496 6.984C3.80896 7.098 3.79996 7.221 3.78796 7.353C3.78196 7.425 3.77896 7.512 3.77896 7.614C3.77896 7.716 3.77896 7.818 3.77896 7.92C3.78496 8.022 3.78796 8.118 3.78796 8.208C3.79396 8.298 3.80296 8.367 3.81496 8.415C3.82696 8.433 3.83296 8.454 3.83296 8.478C3.83296 8.502 3.83296 8.52 3.83296 8.532C3.85096 8.67 3.88696 8.805 3.94096 8.937C3.99496 9.063 4.05496 9.168 4.12096 9.252C4.14496 9.276 4.16296 9.291 4.17496 9.297C4.19296 9.303 4.21996 9.306 4.25596 9.306C4.37596 9.306 4.39696 9.339 4.31896 9.405C4.27696 9.435 4.22296 9.456 4.15696 9.468C4.09696 9.486 4.02796 9.486 3.94996 9.468C3.74596 9.432 3.53296 9.21 3.31096 8.802C3.25096 8.682 3.20596 8.547 3.17596 8.397C3.14596 8.247 3.12496 8.046 3.11296 7.794V7.434C3.11296 7.422 3.08896 7.416 3.04096 7.416C2.99296 7.41 2.90296 7.41 2.77096 7.416C2.68696 7.422 2.60896 7.428 2.53696 7.434C2.46496 7.434 2.41696 7.434 2.39296 7.434C2.36896 7.44 2.33296 7.446 2.28496 7.452C2.24296 7.458 2.20096 7.461 2.15896 7.461C2.03296 7.473 1.93096 7.482 1.85296 7.488C1.78096 7.494 1.72396 7.503 1.68196 7.515C1.64596 7.521 1.62196 7.53 1.60996 7.542C1.59796 7.554 1.58896 7.569 1.58296 7.587V8.946C1.58896 8.946 1.59196 8.961 1.59196 8.991C1.59196 9.021 1.58896 9.054 1.58296 9.09C1.58296 9.126 1.57696 9.159 1.56496 9.189C1.55896 9.225 1.55296 9.249 1.54696 9.261C1.51696 9.285 1.47796 9.303 1.42996 9.315C1.38796 9.333 1.35196 9.336 1.32196 9.324C1.32196 9.318 1.31296 9.291 1.29496 9.243C1.28296 9.201 1.26496 9.147 1.24096 9.081C1.22296 9.015 1.20196 8.94 1.17796 8.856C1.15396 8.772 1.13296 8.688 1.11496 8.604C1.09696 8.508 1.07596 8.379 1.05196 8.217C1.03396 8.055 1.01896 7.911 1.00696 7.785ZM1.63696 7.236L1.73596 7.227C1.76596 7.221 1.81696 7.215 1.88896 7.209C1.96096 7.203 2.03296 7.197 2.10496 7.191C2.26696 7.173 2.42596 7.164 2.58196 7.164C2.73796 7.164 2.87596 7.176 2.99596 7.2C3.01996 7.206 3.04696 7.209 3.07696 7.209H3.11296C3.12496 7.203 3.13396 7.164 3.13996 7.092C3.14596 7.02 3.15196 6.933 3.15796 6.831C3.17596 6.663 3.19396 6.501 3.21196 6.345C3.23596 6.183 3.26296 5.994 3.29296 5.778C3.32296 5.568 3.34696 5.388 3.36496 5.238C3.38896 5.082 3.40696 4.947 3.41896 4.833C3.43096 4.713 3.43996 4.608 3.44596 4.518C3.45196 4.422 3.45496 4.329 3.45496 4.239C3.45496 3.993 3.44296 3.843 3.41896 3.789C3.41296 3.771 3.39796 3.765 3.37396 3.771C3.34996 3.777 3.32896 3.792 3.31096 3.816L3.25696 3.852L2.95996 4.14C2.92396 4.158 2.90296 4.182 2.89696 4.212C2.88496 4.23 2.87296 4.248 2.86096 4.266C2.84896 4.278 2.82796 4.302 2.79796 4.338C2.76196 4.356 2.74396 4.374 2.74396 4.392C2.74396 4.416 2.71396 4.464 2.65396 4.536C2.62396 4.566 2.59996 4.599 2.58196 4.635C2.56396 4.665 2.54896 4.689 2.53696 4.707C2.53696 4.737 2.52796 4.752 2.50996 4.752C2.50396 4.752 2.50096 4.758 2.50096 4.77C2.50696 4.782 2.50696 4.791 2.50096 4.797C2.50096 4.803 2.50096 4.809 2.50096 4.815C2.47696 4.833 2.45296 4.866 2.42896 4.914C2.40496 4.956 2.39296 4.98 2.39296 4.986C2.39296 5.01 2.37796 5.043 2.34796 5.085L2.29396 5.157C2.29996 5.169 2.29396 5.19 2.27596 5.22C2.25196 5.244 2.24596 5.256 2.25796 5.256C2.26396 5.256 2.26096 5.274 2.24896 5.31C2.21296 5.346 2.19196 5.388 2.18596 5.436C2.17396 5.46 2.15596 5.496 2.13196 5.544C2.11396 5.586 2.09596 5.631 2.07796 5.679C2.05996 5.721 2.04196 5.76 2.02396 5.796C2.01196 5.826 2.00596 5.844 2.00596 5.85C1.99396 5.856 1.98796 5.868 1.98796 5.886C1.98796 5.892 1.98196 5.913 1.96996 5.949C1.96996 5.979 1.96096 5.997 1.94296 6.003C1.94296 6.015 1.93696 6.03 1.92496 6.048C1.91296 6.06 1.90696 6.075 1.90696 6.093C1.90096 6.111 1.89196 6.144 1.87996 6.192C1.87396 6.24 1.86196 6.288 1.84396 6.336C1.82596 6.39 1.80796 6.438 1.78996 6.48C1.77796 6.516 1.77196 6.543 1.77196 6.561C1.75996 6.597 1.75396 6.624 1.75396 6.642C1.74796 6.666 1.73896 6.702 1.72696 6.75C1.72096 6.792 1.71196 6.84 1.69996 6.894C1.68796 6.942 1.67596 6.987 1.66396 7.029C1.65796 7.071 1.65196 7.101 1.64596 7.119L1.63696 7.236ZM4.52463 6.822C4.53663 6.708 4.53963 6.642 4.53363 6.624C4.52763 6.6 4.51263 6.585 4.48862 6.579C4.44662 6.561 4.42562 6.516 4.42562 6.444C4.41962 6.366 4.44062 6.297 4.48862 6.237C4.51263 6.207 4.53363 6.189 4.55163 6.183C4.56963 6.171 4.60263 6.168 4.65063 6.174C4.80663 6.186 4.92063 6.234 4.99263 6.318C5.06463 6.396 5.10963 6.531 5.12763 6.723C5.13363 6.771 5.13663 6.81 5.13663 6.84C5.14263 6.87 5.14563 6.888 5.14563 6.894C5.15163 6.906 5.15763 6.963 5.16363 7.065C5.17563 7.161 5.18463 7.278 5.19063 7.416C5.20263 7.596 5.21463 7.752 5.22663 7.884C5.24463 8.01 5.26863 8.133 5.29863 8.253C5.31663 8.331 5.33763 8.394 5.36163 8.442C5.38563 8.49 5.39763 8.505 5.39763 8.487C5.39763 8.481 5.40363 8.466 5.41563 8.442C5.43363 8.418 5.44863 8.391 5.46063 8.361C5.49063 8.331 5.51763 8.289 5.54163 8.235C5.56563 8.181 5.58363 8.136 5.59563 8.1L5.73963 7.821C5.74563 7.803 5.75163 7.785 5.75763 7.767C5.76363 7.749 5.76963 7.734 5.77563 7.722L5.79363 7.668C5.79363 7.662 5.80263 7.632 5.82063 7.578C5.84463 7.524 5.86863 7.467 5.89263 7.407C5.92263 7.347 5.94963 7.293 5.97363 7.245C5.99763 7.191 6.01563 7.158 6.02763 7.146C6.04563 7.122 6.09663 7.11 6.18063 7.11C6.27063 7.104 6.34563 7.113 6.40563 7.137C6.45963 7.149 6.50163 7.197 6.53163 7.281C6.56763 7.365 6.61263 7.533 6.66663 7.785C6.74463 8.139 6.81063 8.367 6.86463 8.469C6.91863 8.565 6.98463 8.589 7.06263 8.541C7.10463 8.511 7.15563 8.463 7.21563 8.397C7.28163 8.331 7.33563 8.268 7.37763 8.208C7.44963 8.112 7.49763 8.04 7.52163 7.992C7.55163 7.944 7.56963 7.911 7.57563 7.893C7.57563 7.881 7.55163 7.845 7.50363 7.785C7.46163 7.719 7.42863 7.677 7.40463 7.659L7.36863 7.578C7.35663 7.536 7.34463 7.512 7.33263 7.506C7.32063 7.5 7.30863 7.482 7.29663 7.452C7.28463 7.416 7.26963 7.377 7.25163 7.335C7.23963 7.287 7.22763 7.239 7.21563 7.191C7.20363 7.143 7.19463 7.098 7.18863 7.056C7.17663 6.948 7.17663 6.84 7.18863 6.732C7.20063 6.624 7.22463 6.522 7.26063 6.426C7.29663 6.324 7.34163 6.234 7.39563 6.156C7.45563 6.072 7.52463 6.003 7.60263 5.949C7.64463 5.919 7.68063 5.901 7.71063 5.895C7.74063 5.889 7.79163 5.889 7.86363 5.895C8.12163 5.895 8.28363 6.003 8.34963 6.219C8.36763 6.273 8.37663 6.351 8.37663 6.453C8.38263 6.555 8.37963 6.666 8.36763 6.786C8.36163 6.906 8.34663 7.029 8.32263 7.155C8.30463 7.275 8.28363 7.383 8.25963 7.479C8.25363 7.515 8.24463 7.557 8.23263 7.605C8.22663 7.647 8.22363 7.677 8.22363 7.695C8.21163 7.749 8.19963 7.776 8.18763 7.776C8.18763 7.776 8.17563 7.794 8.15163 7.83C8.15163 7.86 8.15463 7.884 8.16063 7.902C8.16663 7.914 8.18763 7.926 8.22363 7.938C8.27163 7.95 8.32863 7.947 8.39463 7.929C8.46063 7.911 8.52963 7.878 8.60163 7.83C8.63763 7.806 8.68563 7.764 8.74563 7.704C8.80563 7.644 8.86563 7.581 8.92563 7.515C8.99163 7.443 9.05163 7.374 9.10563 7.308C9.15963 7.236 9.19863 7.179 9.22263 7.137C9.27063 7.065 9.30663 7.029 9.33063 7.029C9.35463 7.023 9.38163 7.026 9.41163 7.038C9.42963 7.05 9.42963 7.083 9.41163 7.137C9.39363 7.191 9.36063 7.257 9.31263 7.335C9.26463 7.407 9.20463 7.488 9.13263 7.578C9.06663 7.662 8.99463 7.743 8.91663 7.821C8.84463 7.887 8.78463 7.941 8.73663 7.983C8.68863 8.025 8.64063 8.058 8.59263 8.082C8.55063 8.1 8.50263 8.112 8.44863 8.118C8.40063 8.124 8.33763 8.127 8.25963 8.127H8.04363L7.98963 8.208C7.97763 8.232 7.96563 8.256 7.95363 8.28C7.94163 8.304 7.92963 8.319 7.91763 8.325C7.89363 8.337 7.88163 8.352 7.88163 8.37C7.88163 8.382 7.86663 8.406 7.83663 8.442C7.81263 8.472 7.74963 8.535 7.64763 8.631C7.56363 8.715 7.50363 8.775 7.46763 8.811C7.43163 8.841 7.41063 8.856 7.40463 8.856C7.38663 8.856 7.37163 8.859 7.35963 8.865C7.34763 8.865 7.32963 8.871 7.30563 8.883C7.28763 8.889 7.26963 8.895 7.25163 8.901C7.19163 8.919 7.10463 8.928 6.99063 8.928C6.88263 8.928 6.78663 8.919 6.70263 8.901C6.54663 8.859 6.42663 8.76 6.34263 8.604C6.26463 8.448 6.20763 8.211 6.17163 7.893C6.15963 7.869 6.15363 7.848 6.15363 7.83C6.15363 7.806 6.15363 7.791 6.15363 7.785C6.14763 7.779 6.13863 7.794 6.12663 7.83C6.12063 7.86 6.10263 7.899 6.07263 7.947C6.06063 8.001 6.04263 8.049 6.01863 8.091C6.00063 8.133 5.98863 8.16 5.98263 8.172C5.97663 8.184 5.96763 8.208 5.95563 8.244C5.94963 8.274 5.94063 8.31 5.92863 8.352C5.89863 8.448 5.86863 8.532 5.83862 8.604C5.80863 8.676 5.78163 8.721 5.75763 8.739C5.75163 8.745 5.73663 8.76 5.71263 8.784C5.68863 8.802 5.66463 8.826 5.64062 8.856C5.60463 8.898 5.57763 8.928 5.55963 8.946C5.54763 8.964 5.52663 8.973 5.49663 8.973C5.47863 8.973 5.44563 8.976 5.39763 8.982C5.34963 8.982 5.29863 8.982 5.24463 8.982C5.19663 8.988 5.14863 8.991 5.10063 8.991C5.05863 8.991 5.02863 8.988 5.01063 8.982C4.95663 8.976 4.89963 8.94 4.83963 8.874C4.77963 8.808 4.73463 8.724 4.70463 8.622C4.65663 8.52 4.61763 8.403 4.58763 8.271C4.55763 8.139 4.53663 8.013 4.52463 7.893C4.51863 7.833 4.51562 7.758 4.51562 7.668C4.50962 7.578 4.50662 7.485 4.50662 7.389C4.50662 7.287 4.50962 7.188 4.51562 7.092C4.51562 6.99 4.51863 6.9 4.52463 6.822ZM7.76463 6.318C7.71663 6.42 7.67763 6.531 7.64763 6.651C7.62363 6.765 7.61763 6.87 7.62963 6.966C7.62963 7.008 7.63563 7.059 7.64763 7.119C7.65963 7.173 7.67163 7.224 7.68363 7.272C7.70163 7.32 7.71663 7.359 7.72863 7.389C7.74663 7.419 7.75863 7.428 7.76463 7.416C7.76463 7.41 7.77063 7.383 7.78263 7.335C7.80063 7.281 7.81863 7.221 7.83663 7.155C7.87863 6.993 7.90863 6.831 7.92663 6.669C7.94463 6.501 7.94763 6.375 7.93563 6.291C7.92363 6.189 7.90563 6.141 7.88163 6.147C7.86363 6.153 7.82463 6.21 7.76463 6.318ZM9.0223 8.676C9.0223 8.658 9.0133 8.634 8.9953 8.604C8.9413 8.502 8.9083 8.376 8.8963 8.226C8.8783 8.07 8.8933 7.866 8.9413 7.614C8.9473 7.578 8.9623 7.521 8.9863 7.443C9.0103 7.365 9.0373 7.287 9.0673 7.209C9.0973 7.131 9.1243 7.062 9.1483 7.002C9.1723 6.942 9.1903 6.912 9.2023 6.912L9.2293 6.885C9.2413 6.873 9.2473 6.861 9.2473 6.849C9.2533 6.837 9.2623 6.822 9.2743 6.804L9.4183 6.651C9.4423 6.639 9.4633 6.624 9.4813 6.606C9.5053 6.588 9.5263 6.576 9.5443 6.57C9.5743 6.522 9.6163 6.48 9.6703 6.444C9.7303 6.408 9.7843 6.384 9.8323 6.372L9.9403 6.327C10.0123 6.297 10.1083 6.288 10.2283 6.3C10.3483 6.306 10.4773 6.33 10.6153 6.372L10.7143 6.399L10.7503 6.327C10.7863 6.273 10.8253 6.237 10.8673 6.219C10.9153 6.207 10.9783 6.201 11.0563 6.201C11.1343 6.201 11.2033 6.213 11.2633 6.237C11.3053 6.249 11.3353 6.264 11.3533 6.282C11.3773 6.294 11.3953 6.33 11.4073 6.39C11.4193 6.45 11.4283 6.543 11.4343 6.669C11.4403 6.789 11.4493 6.963 11.4613 7.191C11.4733 7.263 11.4793 7.329 11.4793 7.389C11.4793 7.443 11.4823 7.476 11.4883 7.488C11.4883 7.5 11.4883 7.527 11.4883 7.569C11.4883 7.605 11.4943 7.638 11.5063 7.668C11.5183 7.752 11.5363 7.833 11.5603 7.911C11.5843 7.989 11.6083 8.052 11.6323 8.1C11.6443 8.124 11.6563 8.148 11.6683 8.172C11.6863 8.19 11.6953 8.202 11.6953 8.208C11.6953 8.238 11.7103 8.238 11.7403 8.208C11.7883 8.142 11.8303 8.079 11.8663 8.019C11.9083 7.959 11.9503 7.887 11.9923 7.803C12.0223 7.755 12.0463 7.716 12.0643 7.686C12.0823 7.656 12.0913 7.635 12.0913 7.623C12.1033 7.617 12.1183 7.593 12.1363 7.551C12.1543 7.509 12.1753 7.464 12.1993 7.416C12.2653 7.302 12.3193 7.209 12.3613 7.137C12.4093 7.065 12.4543 7.029 12.4963 7.029C12.5443 7.029 12.5683 7.038 12.5683 7.056C12.5743 7.068 12.5653 7.092 12.5413 7.128C12.4993 7.158 12.4783 7.182 12.4783 7.2C12.4783 7.206 12.4753 7.221 12.4693 7.245C12.4693 7.263 12.4633 7.284 12.4513 7.308C12.4333 7.332 12.4123 7.383 12.3883 7.461C12.3703 7.533 12.3553 7.602 12.3433 7.668C12.2773 7.95 12.2203 8.118 12.1723 8.172C12.1543 8.202 12.1453 8.223 12.1453 8.235C12.1333 8.253 12.1063 8.292 12.0643 8.352C12.0223 8.406 11.9863 8.442 11.9563 8.46C11.9443 8.472 11.9293 8.484 11.9113 8.496C11.8933 8.502 11.8783 8.508 11.8663 8.514C11.8363 8.514 11.8093 8.517 11.7853 8.523C11.7613 8.529 11.7373 8.532 11.7133 8.532C11.6113 8.556 11.5063 8.559 11.3983 8.541C11.2903 8.517 11.2093 8.472 11.1553 8.406C11.0893 8.34 11.0323 8.25 10.9843 8.136C10.9363 8.022 10.9003 7.908 10.8763 7.794C10.8643 7.722 10.8523 7.677 10.8403 7.659C10.8283 7.641 10.8223 7.65 10.8223 7.686C10.8223 7.71 10.8133 7.722 10.7953 7.722C10.7893 7.734 10.7863 7.749 10.7863 7.767C10.7863 7.779 10.7803 7.797 10.7683 7.821C10.7623 7.833 10.7533 7.854 10.7413 7.884C10.7353 7.914 10.7263 7.944 10.7143 7.974C10.7023 8.004 10.6873 8.031 10.6693 8.055C10.6573 8.079 10.6483 8.094 10.6423 8.1C10.6363 8.1 10.6333 8.115 10.6333 8.145C10.6333 8.175 10.6213 8.202 10.5973 8.226C10.5913 8.238 10.5853 8.25 10.5793 8.262C10.5733 8.274 10.5703 8.286 10.5703 8.298C10.5703 8.304 10.5673 8.307 10.5613 8.307C10.5613 8.307 10.5613 8.31 10.5613 8.316V8.334C10.5493 8.334 10.5433 8.34 10.5433 8.352C10.5433 8.37 10.5373 8.382 10.5253 8.388L10.4623 8.487C10.4503 8.517 10.4413 8.535 10.4353 8.541L10.4173 8.559C10.3993 8.559 10.3963 8.565 10.4083 8.577C10.4143 8.583 10.4053 8.601 10.3813 8.631C10.3633 8.655 10.3393 8.682 10.3093 8.712C10.2793 8.742 10.2493 8.769 10.2193 8.793C10.1893 8.817 10.1683 8.832 10.1563 8.838C10.1263 8.856 10.1173 8.865 10.1293 8.865C10.1293 8.877 10.0993 8.898 10.0393 8.928C9.9853 8.952 9.9403 8.958 9.9043 8.946C9.8983 8.946 9.8863 8.949 9.8683 8.955C9.8503 8.961 9.8293 8.964 9.8053 8.964C9.7213 8.976 9.6613 8.985 9.6253 8.991C9.5893 8.991 9.5383 8.985 9.4723 8.973C9.4243 8.973 9.3643 8.958 9.2923 8.928C9.2203 8.898 9.1633 8.868 9.1213 8.838C9.1033 8.814 9.0823 8.787 9.0583 8.757C9.0343 8.721 9.0223 8.694 9.0223 8.676ZM9.5803 7.722C9.5683 7.758 9.5623 7.812 9.5623 7.884C9.5623 7.956 9.5653 8.028 9.5713 8.1C9.5773 8.172 9.5863 8.238 9.5983 8.298C9.6103 8.358 9.6223 8.394 9.6343 8.406C9.6463 8.406 9.6553 8.415 9.6613 8.433C9.6733 8.451 9.6853 8.469 9.6973 8.487C9.7453 8.553 9.7903 8.568 9.8323 8.532L9.8773 8.487C9.8773 8.451 9.8863 8.43 9.9043 8.424C9.9523 8.364 10.0123 8.256 10.0843 8.1C10.1563 7.938 10.2253 7.761 10.2913 7.569C10.3213 7.479 10.3543 7.38 10.3903 7.272C10.4263 7.164 10.4503 7.086 10.4623 7.038C10.5163 6.912 10.5343 6.84 10.5163 6.822C10.4983 6.822 10.4893 6.807 10.4893 6.777C10.4893 6.771 10.4863 6.768 10.4803 6.768C10.4803 6.768 10.4803 6.765 10.4803 6.759V6.75C10.4563 6.75 10.4443 6.732 10.4443 6.696L10.4083 6.624C10.3903 6.612 10.3663 6.603 10.3363 6.597C10.3063 6.591 10.2973 6.594 10.3093 6.606C10.3093 6.618 10.3033 6.624 10.2913 6.624C10.2733 6.624 10.2553 6.633 10.2373 6.651L10.0933 6.75C10.0633 6.75 10.0483 6.759 10.0483 6.777H10.0573C10.0513 6.777 10.0603 6.771 10.0843 6.759C10.0783 6.771 10.0693 6.783 10.0573 6.795C10.0453 6.807 10.0333 6.819 10.0213 6.831C10.0093 6.843 9.9973 6.858 9.9853 6.876C9.9553 6.906 9.9253 6.942 9.8953 6.984C9.8653 7.02 9.8443 7.047 9.8323 7.065C9.8263 7.083 9.8143 7.11 9.7963 7.146C9.7783 7.176 9.7633 7.2 9.7513 7.218C9.7393 7.236 9.7273 7.257 9.7153 7.281C9.7093 7.293 9.7063 7.302 9.7063 7.308V7.326C9.7063 7.332 9.7033 7.338 9.6973 7.344C9.6973 7.35 9.6973 7.356 9.6973 7.362C9.6853 7.386 9.6673 7.425 9.6433 7.479C9.6253 7.527 9.6163 7.572 9.6163 7.614C9.6043 7.62 9.5953 7.635 9.5893 7.659C9.5833 7.683 9.5803 7.704 9.5803 7.722ZM12.1937 8.658C12.1937 8.646 12.1877 8.634 12.1757 8.622C12.1637 8.61 12.1517 8.589 12.1397 8.559C12.0977 8.499 12.0647 8.406 12.0407 8.28C12.0167 8.154 12.0047 8.04 12.0047 7.938C12.0227 7.788 12.0677 7.623 12.1397 7.443C12.2117 7.263 12.2987 7.101 12.4007 6.957C12.4247 6.921 12.4547 6.882 12.4907 6.84C12.5327 6.792 12.5717 6.747 12.6077 6.705C12.6497 6.663 12.6827 6.627 12.7067 6.597C12.7367 6.567 12.7547 6.552 12.7607 6.552C12.7727 6.552 12.7907 6.54 12.8147 6.516C12.8327 6.492 12.8687 6.465 12.9227 6.435C12.9827 6.399 13.0487 6.366 13.1207 6.336C13.1927 6.306 13.2647 6.282 13.3367 6.264C13.4087 6.24 13.4687 6.228 13.5167 6.228C13.6007 6.216 13.6457 6.204 13.6517 6.192C13.6637 6.18 13.6607 6.132 13.6427 6.048C13.6127 5.886 13.5857 5.691 13.5617 5.463C13.5377 5.229 13.5167 4.989 13.4987 4.743C13.4867 4.497 13.4777 4.257 13.4717 4.023C13.4657 3.783 13.4687 3.573 13.4807 3.393C13.5527 2.631 13.7567 1.986 14.0927 1.458C14.1287 1.416 14.1737 1.365 14.2277 1.305C14.2817 1.239 14.3357 1.179 14.3897 1.125C14.4437 1.065 14.4947 1.014 14.5427 0.972C14.5907 0.924 14.6267 0.894 14.6507 0.881999C14.7227 0.845999 14.7797 0.818999 14.8217 0.800999C14.8637 0.783 14.9027 0.768 14.9387 0.755999C14.9747 0.744 15.0077 0.735 15.0377 0.729C15.0737 0.723 15.1187 0.717 15.1727 0.710999C15.2147 0.710999 15.2507 0.710999 15.2807 0.710999C15.3167 0.710999 15.3467 0.714 15.3707 0.72C15.4007 0.72 15.4307 0.726 15.4607 0.738C15.4967 0.744 15.5387 0.753 15.5867 0.765C15.6527 0.788999 15.7187 0.818999 15.7847 0.855C15.8507 0.885 15.9107 0.921 15.9647 0.962999C16.0307 1.011 16.0757 1.05 16.0997 1.08C16.1237 1.104 16.1567 1.155 16.1987 1.233C16.2287 1.281 16.2527 1.329 16.2707 1.377C16.2947 1.425 16.3067 1.458 16.3067 1.476L16.3517 1.683C16.3577 1.719 16.3637 1.776 16.3697 1.854C16.3757 1.932 16.3787 2.016 16.3787 2.106C16.3787 2.19 16.3757 2.271 16.3697 2.349C16.3637 2.427 16.3577 2.481 16.3517 2.511C16.3517 2.523 16.3487 2.547 16.3427 2.583C16.3367 2.613 16.3337 2.646 16.3337 2.682C16.3337 2.706 16.3307 2.733 16.3247 2.763C16.3187 2.793 16.3157 2.817 16.3157 2.835C16.3037 2.901 16.2917 2.949 16.2797 2.979C16.2737 3.009 16.2707 3.039 16.2707 3.069C16.2587 3.111 16.2377 3.195 16.2077 3.321C16.1837 3.441 16.1657 3.54 16.1537 3.618C16.1417 3.654 16.1327 3.687 16.1267 3.717C16.1207 3.747 16.1177 3.765 16.1177 3.771C16.1117 3.789 16.1027 3.819 16.0907 3.861C16.0787 3.903 16.0667 3.945 16.0547 3.987C16.0427 4.029 16.0307 4.068 16.0187 4.104C16.0067 4.134 15.9977 4.152 15.9917 4.158C15.9917 4.17 15.9887 4.185 15.9827 4.203C15.9767 4.215 15.9707 4.23 15.9647 4.248C15.9647 4.278 15.9557 4.314 15.9377 4.356C15.9257 4.392 15.9107 4.428 15.8927 4.464C15.8807 4.494 15.8717 4.527 15.8657 4.563C15.8597 4.599 15.8507 4.623 15.8387 4.635C15.8387 4.647 15.8357 4.665 15.8297 4.689C15.8237 4.713 15.8147 4.74 15.8027 4.77C15.7547 4.848 15.7247 4.905 15.7127 4.941C15.7067 4.977 15.7007 5.01 15.6947 5.04C15.6827 5.076 15.6557 5.13 15.6137 5.202C15.5777 5.274 15.5537 5.31 15.5417 5.31V5.364C15.5417 5.394 15.5357 5.415 15.5237 5.427C15.5057 5.439 15.4877 5.46 15.4697 5.49C15.4577 5.52 15.4457 5.547 15.4337 5.571C15.4097 5.649 15.3947 5.688 15.3887 5.688C15.3767 5.688 15.3707 5.697 15.3707 5.715C15.3707 5.733 15.3617 5.763 15.3437 5.805C15.3257 5.847 15.3077 5.868 15.2897 5.868L15.2807 5.877C15.2747 5.883 15.2717 5.892 15.2717 5.904C15.2717 5.922 15.2627 5.949 15.2447 5.985C15.2327 5.997 15.2117 6.039 15.1817 6.111C15.1517 6.183 15.1187 6.261 15.0827 6.345C15.0347 6.429 14.9897 6.51 14.9477 6.588C14.9057 6.66 14.8757 6.711 14.8577 6.741C14.8157 6.819 14.7827 6.882 14.7587 6.93C14.7347 6.978 14.7137 7.032 14.6957 7.092C14.6837 7.14 14.6777 7.173 14.6777 7.191C14.6777 7.209 14.6837 7.233 14.6957 7.263C14.7197 7.311 14.7317 7.335 14.7317 7.335C14.7317 7.347 14.7347 7.368 14.7407 7.398C14.7527 7.422 14.7647 7.449 14.7767 7.479C14.7887 7.497 14.7947 7.512 14.7947 7.524C14.8007 7.536 14.8067 7.548 14.8127 7.56C14.8187 7.572 14.8217 7.584 14.8217 7.596C14.8157 7.596 14.8577 7.668 14.9477 7.812C14.9717 7.86 15.0167 7.92 15.0827 7.992C15.1487 8.058 15.2087 8.103 15.2627 8.127C15.2927 8.157 15.3197 8.175 15.3437 8.181C15.3737 8.187 15.4217 8.199 15.4877 8.217C15.5177 8.223 15.5597 8.193 15.6137 8.127C15.6677 8.061 15.7247 7.977 15.7847 7.875C15.8507 7.767 15.9137 7.65 15.9737 7.524C16.0337 7.392 16.0817 7.263 16.1177 7.137C16.1477 7.047 16.1837 6.987 16.2257 6.957C16.2737 6.921 16.3067 6.915 16.3247 6.939C16.3427 6.951 16.3307 7.044 16.2887 7.218C16.2527 7.386 16.1447 7.65 15.9647 8.01C15.8987 8.148 15.8177 8.256 15.7217 8.334C15.6317 8.412 15.5267 8.478 15.4067 8.532C15.2867 8.58 15.1637 8.601 15.0377 8.595C14.9177 8.589 14.8037 8.556 14.6957 8.496C14.6597 8.466 14.5997 8.409 14.5157 8.325C14.4377 8.241 14.3777 8.16 14.3357 8.082C14.3237 8.064 14.3117 8.049 14.2997 8.037C14.2937 8.019 14.2877 8.004 14.2817 7.992C14.2697 7.974 14.2637 7.959 14.2637 7.947C14.2577 7.947 14.2427 7.968 14.2187 8.01C14.2007 8.046 14.1797 8.088 14.1557 8.136C14.1317 8.184 14.1107 8.232 14.0927 8.28C14.0747 8.322 14.0657 8.346 14.0657 8.352C14.0657 8.358 14.0627 8.361 14.0567 8.361H14.0477C14.0297 8.361 14.0117 8.382 13.9937 8.424C13.9817 8.454 13.9547 8.493 13.9127 8.541C13.8707 8.589 13.8227 8.64 13.7687 8.694C13.7207 8.742 13.6727 8.784 13.6247 8.82C13.5767 8.856 13.5467 8.874 13.5347 8.874C13.5227 8.874 13.5107 8.877 13.4987 8.883C13.4867 8.889 13.4807 8.898 13.4807 8.91C13.4747 8.934 13.4627 8.946 13.4447 8.946C13.4207 8.946 13.4087 8.955 13.4087 8.973C13.4087 8.985 13.3877 8.994 13.3457 9C13.3037 9.006 13.2527 9.012 13.1927 9.018C13.1327 9.024 13.0667 9.027 12.9947 9.027C12.9287 9.027 12.8687 9.021 12.8147 9.009C12.7787 9.009 12.7397 9.006 12.6977 9C12.6557 8.994 12.6287 8.985 12.6167 8.973C12.5687 8.961 12.5057 8.931 12.4277 8.883C12.3557 8.829 12.3107 8.787 12.2927 8.757C12.2867 8.751 12.2777 8.742 12.2657 8.73C12.2537 8.718 12.2417 8.709 12.2297 8.703C12.2057 8.679 12.1937 8.664 12.1937 8.658ZM14.2187 3.321C14.2067 3.375 14.1947 3.465 14.1827 3.591C14.1767 3.717 14.1707 3.855 14.1647 4.005C14.1647 4.149 14.1647 4.296 14.1647 4.446C14.1647 4.59 14.1707 4.71 14.1827 4.806C14.2007 4.974 14.2127 5.091 14.2187 5.157C14.2247 5.223 14.2337 5.28 14.2457 5.328C14.2457 5.364 14.2487 5.403 14.2547 5.445C14.2607 5.487 14.2697 5.523 14.2817 5.553C14.2817 5.583 14.2847 5.613 14.2907 5.643C14.2967 5.673 14.2997 5.691 14.2997 5.697C14.2997 5.709 14.2997 5.736 14.2997 5.778C14.2997 5.82 14.3057 5.862 14.3177 5.904C14.3297 5.952 14.3417 6 14.3537 6.048C14.3657 6.09 14.3717 6.117 14.3717 6.129C14.3777 6.153 14.3867 6.204 14.3987 6.282C14.4107 6.354 14.4227 6.405 14.4347 6.435C14.4347 6.441 14.4377 6.45 14.4437 6.462C14.4437 6.474 14.4437 6.483 14.4437 6.489C14.4497 6.495 14.4527 6.504 14.4527 6.516L14.4887 6.597L14.5247 6.516C14.5307 6.486 14.5397 6.45 14.5517 6.408C14.5697 6.366 14.5877 6.33 14.6057 6.3C14.6177 6.264 14.6357 6.207 14.6597 6.129C14.6897 6.051 14.7167 5.97 14.7407 5.886C14.7767 5.802 14.8127 5.721 14.8487 5.643C14.8847 5.565 14.9117 5.508 14.9297 5.472C14.9537 5.418 14.9747 5.376 14.9927 5.346C15.0107 5.31 15.0257 5.277 15.0377 5.247C15.0497 5.211 15.0617 5.172 15.0737 5.13C15.0917 5.088 15.1127 5.031 15.1367 4.959C15.1727 4.881 15.2057 4.803 15.2357 4.725C15.2717 4.641 15.2957 4.581 15.3077 4.545C15.3497 4.485 15.3707 4.44 15.3707 4.41C15.3707 4.398 15.3737 4.383 15.3797 4.365C15.3857 4.341 15.3947 4.314 15.4067 4.284C15.4247 4.248 15.4457 4.191 15.4697 4.113C15.4997 4.029 15.5267 3.939 15.5507 3.843C15.5807 3.741 15.6077 3.642 15.6317 3.546C15.6617 3.444 15.6857 3.36 15.7037 3.294C15.7277 3.162 15.7487 2.997 15.7667 2.799C15.7907 2.595 15.8027 2.418 15.8027 2.268C15.8027 2.184 15.7967 2.1 15.7847 2.016C15.7787 1.926 15.7667 1.815 15.7487 1.683C15.7307 1.599 15.7067 1.518 15.6767 1.44C15.6527 1.356 15.6227 1.296 15.5867 1.26C15.5807 1.254 15.5747 1.248 15.5687 1.242C15.5687 1.23 15.5657 1.218 15.5597 1.206C15.5537 1.194 15.5477 1.185 15.5417 1.179C15.5417 1.161 15.5237 1.143 15.4877 1.125C15.4517 1.113 15.4277 1.107 15.4157 1.107C15.4097 1.107 15.3947 1.113 15.3707 1.125C15.3467 1.149 15.3257 1.161 15.3077 1.161C15.2957 1.161 15.2747 1.173 15.2447 1.197C15.2147 1.215 15.1817 1.239 15.1457 1.269C15.1097 1.293 15.0737 1.32 15.0377 1.35C15.0077 1.38 14.9837 1.404 14.9657 1.422C14.9297 1.452 14.8877 1.5 14.8397 1.566C14.7917 1.632 14.7437 1.701 14.6957 1.773C14.6837 1.785 14.6747 1.797 14.6687 1.809C14.6687 1.821 14.6657 1.833 14.6597 1.845C14.6537 1.857 14.6477 1.866 14.6417 1.872C14.6297 1.884 14.6117 1.911 14.5877 1.953C14.5697 1.989 14.5487 2.046 14.5247 2.124C14.5067 2.142 14.4887 2.169 14.4707 2.205C14.4587 2.241 14.4527 2.265 14.4527 2.277C14.4347 2.313 14.4227 2.34 14.4167 2.358C14.4167 2.376 14.4107 2.4 14.3987 2.43C14.3867 2.442 14.3777 2.463 14.3717 2.493C14.3717 2.523 14.3657 2.55 14.3537 2.574C14.3417 2.604 14.3297 2.634 14.3177 2.664C14.3057 2.694 14.2997 2.715 14.2997 2.727C14.2997 2.745 14.2997 2.772 14.2997 2.808C14.2997 2.838 14.2937 2.874 14.2817 2.916C14.2697 2.964 14.2577 3.012 14.2457 3.06C14.2397 3.108 14.2367 3.147 14.2367 3.177C14.2367 3.201 14.2337 3.231 14.2277 3.267C14.2217 3.297 14.2187 3.315 14.2187 3.321ZM12.7787 7.965C12.7607 8.271 12.8207 8.502 12.9587 8.658C13.0007 8.694 13.0397 8.709 13.0757 8.703C13.1117 8.697 13.1897 8.655 13.3097 8.577C13.3577 8.535 13.4087 8.49 13.4627 8.442C13.5227 8.388 13.5707 8.34 13.6067 8.298C13.6367 8.262 13.6727 8.217 13.7147 8.163C13.7627 8.103 13.8077 8.043 13.8497 7.983C13.8917 7.917 13.9307 7.854 13.9667 7.794C14.0027 7.728 14.0297 7.677 14.0477 7.641C14.0717 7.611 14.0837 7.587 14.0837 7.569C14.0837 7.545 14.0717 7.509 14.0477 7.461C13.9997 7.335 13.9547 7.209 13.9127 7.083C13.8767 6.957 13.8437 6.843 13.8137 6.741C13.7897 6.651 13.7747 6.6 13.7687 6.588C13.7627 6.57 13.7447 6.561 13.7147 6.561C13.6667 6.561 13.6367 6.573 13.6247 6.597C13.6127 6.603 13.5977 6.609 13.5797 6.615C13.5677 6.621 13.5527 6.627 13.5347 6.633C13.5047 6.633 13.4747 6.663 13.4447 6.723C13.4267 6.741 13.4057 6.756 13.3817 6.768C13.3697 6.774 13.3607 6.78 13.3547 6.786C13.3487 6.786 13.3337 6.798 13.3097 6.822C13.3097 6.84 13.3037 6.855 13.2917 6.867C13.2797 6.873 13.2677 6.876 13.2557 6.876C13.2377 6.876 13.2287 6.882 13.2287 6.894C13.2287 6.912 13.2227 6.927 13.2107 6.939C13.1867 6.951 13.1477 7.002 13.0937 7.092C13.0397 7.182 12.9947 7.269 12.9587 7.353C12.8567 7.563 12.7967 7.767 12.7787 7.965ZM15.9657 8.676C15.9657 8.658 15.9567 8.634 15.9387 8.604C15.8847 8.502 15.8517 8.376 15.8397 8.226C15.8217 8.07 15.8367 7.866 15.8847 7.614C15.8907 7.578 15.9057 7.521 15.9297 7.443C15.9537 7.365 15.9807 7.287 16.0107 7.209C16.0407 7.131 16.0677 7.062 16.0917 7.002C16.1157 6.942 16.1337 6.912 16.1457 6.912L16.1727 6.885C16.1847 6.873 16.1907 6.861 16.1907 6.849C16.1967 6.837 16.2057 6.822 16.2177 6.804L16.3617 6.651C16.3857 6.639 16.4067 6.624 16.4247 6.606C16.4487 6.588 16.4697 6.576 16.4877 6.57C16.5177 6.522 16.5597 6.48 16.6137 6.444C16.6737 6.408 16.7277 6.384 16.7757 6.372L16.8837 6.327C16.9557 6.297 17.0517 6.288 17.1717 6.3C17.2917 6.306 17.4207 6.33 17.5587 6.372L17.6577 6.399L17.6937 6.327C17.7297 6.273 17.7687 6.237 17.8107 6.219C17.8587 6.207 17.9217 6.201 17.9997 6.201C18.0777 6.201 18.1467 6.213 18.2067 6.237C18.2487 6.249 18.2787 6.264 18.2967 6.282C18.3207 6.294 18.3387 6.33 18.3507 6.39C18.3627 6.45 18.3717 6.543 18.3777 6.669C18.3837 6.789 18.3927 6.963 18.4047 7.191C18.4167 7.263 18.4227 7.329 18.4227 7.389C18.4227 7.443 18.4257 7.476 18.4317 7.488C18.4317 7.5 18.4317 7.527 18.4317 7.569C18.4317 7.605 18.4377 7.638 18.4497 7.668C18.4617 7.752 18.4797 7.833 18.5037 7.911C18.5277 7.989 18.5517 8.052 18.5757 8.1C18.5877 8.124 18.5997 8.148 18.6117 8.172C18.6297 8.19 18.6387 8.202 18.6387 8.208C18.6387 8.238 18.6537 8.238 18.6837 8.208C18.7317 8.142 18.7737 8.079 18.8097 8.019C18.8517 7.959 18.8937 7.887 18.9357 7.803C18.9657 7.755 18.9897 7.716 19.0077 7.686C19.0257 7.656 19.0347 7.635 19.0347 7.623C19.0467 7.617 19.0617 7.593 19.0797 7.551C19.0977 7.509 19.1187 7.464 19.1427 7.416C19.2087 7.302 19.2627 7.209 19.3047 7.137C19.3527 7.065 19.3977 7.029 19.4397 7.029C19.4877 7.029 19.5117 7.038 19.5117 7.056C19.5177 7.068 19.5087 7.092 19.4847 7.128C19.4427 7.158 19.4217 7.182 19.4217 7.2C19.4217 7.206 19.4187 7.221 19.4127 7.245C19.4127 7.263 19.4067 7.284 19.3947 7.308C19.3767 7.332 19.3557 7.383 19.3317 7.461C19.3137 7.533 19.2987 7.602 19.2867 7.668C19.2207 7.95 19.1637 8.118 19.1157 8.172C19.0977 8.202 19.0887 8.223 19.0887 8.235C19.0767 8.253 19.0497 8.292 19.0077 8.352C18.9657 8.406 18.9297 8.442 18.8997 8.46C18.8877 8.472 18.8727 8.484 18.8547 8.496C18.8367 8.502 18.8217 8.508 18.8097 8.514C18.7797 8.514 18.7527 8.517 18.7287 8.523C18.7047 8.529 18.6807 8.532 18.6567 8.532C18.5547 8.556 18.4497 8.559 18.3417 8.541C18.2337 8.517 18.1527 8.472 18.0987 8.406C18.0327 8.34 17.9757 8.25 17.9277 8.136C17.8797 8.022 17.8437 7.908 17.8197 7.794C17.8077 7.722 17.7957 7.677 17.7837 7.659C17.7717 7.641 17.7657 7.65 17.7657 7.686C17.7657 7.71 17.7567 7.722 17.7387 7.722C17.7327 7.734 17.7297 7.749 17.7297 7.767C17.7297 7.779 17.7237 7.797 17.7117 7.821C17.7057 7.833 17.6967 7.854 17.6847 7.884C17.6787 7.914 17.6697 7.944 17.6577 7.974C17.6457 8.004 17.6307 8.031 17.6127 8.055C17.6007 8.079 17.5917 8.094 17.5857 8.1C17.5797 8.1 17.5767 8.115 17.5767 8.145C17.5767 8.175 17.5647 8.202 17.5407 8.226C17.5347 8.238 17.5287 8.25 17.5227 8.262C17.5167 8.274 17.5137 8.286 17.5137 8.298C17.5137 8.304 17.5107 8.307 17.5047 8.307C17.5047 8.307 17.5047 8.31 17.5047 8.316V8.334C17.4927 8.334 17.4867 8.34 17.4867 8.352C17.4867 8.37 17.4807 8.382 17.4687 8.388L17.4057 8.487C17.3937 8.517 17.3847 8.535 17.3787 8.541L17.3607 8.559C17.3427 8.559 17.3397 8.565 17.3517 8.577C17.3577 8.583 17.3487 8.601 17.3247 8.631C17.3067 8.655 17.2827 8.682 17.2527 8.712C17.2227 8.742 17.1927 8.769 17.1627 8.793C17.1327 8.817 17.1117 8.832 17.0997 8.838C17.0697 8.856 17.0607 8.865 17.0727 8.865C17.0727 8.877 17.0427 8.898 16.9827 8.928C16.9287 8.952 16.8837 8.958 16.8477 8.946C16.8417 8.946 16.8297 8.949 16.8117 8.955C16.7937 8.961 16.7727 8.964 16.7487 8.964C16.6647 8.976 16.6047 8.985 16.5687 8.991C16.5327 8.991 16.4817 8.985 16.4157 8.973C16.3677 8.973 16.3077 8.958 16.2357 8.928C16.1637 8.898 16.1067 8.868 16.0647 8.838C16.0467 8.814 16.0257 8.787 16.0017 8.757C15.9777 8.721 15.9657 8.694 15.9657 8.676ZM16.5237 7.722C16.5117 7.758 16.5057 7.812 16.5057 7.884C16.5057 7.956 16.5087 8.028 16.5147 8.1C16.5207 8.172 16.5297 8.238 16.5417 8.298C16.5537 8.358 16.5657 8.394 16.5777 8.406C16.5897 8.406 16.5987 8.415 16.6047 8.433C16.6167 8.451 16.6287 8.469 16.6407 8.487C16.6887 8.553 16.7337 8.568 16.7757 8.532L16.8207 8.487C16.8207 8.451 16.8297 8.43 16.8477 8.424C16.8957 8.364 16.9557 8.256 17.0277 8.1C17.0997 7.938 17.1687 7.761 17.2347 7.569C17.2647 7.479 17.2977 7.38 17.3337 7.272C17.3697 7.164 17.3937 7.086 17.4057 7.038C17.4597 6.912 17.4777 6.84 17.4597 6.822C17.4417 6.822 17.4327 6.807 17.4327 6.777C17.4327 6.771 17.4297 6.768 17.4237 6.768C17.4237 6.768 17.4237 6.765 17.4237 6.759V6.75C17.3997 6.75 17.3877 6.732 17.3877 6.696L17.3517 6.624C17.3337 6.612 17.3097 6.603 17.2797 6.597C17.2497 6.591 17.2407 6.594 17.2527 6.606C17.2527 6.618 17.2467 6.624 17.2347 6.624C17.2167 6.624 17.1987 6.633 17.1807 6.651L17.0367 6.75C17.0067 6.75 16.9917 6.759 16.9917 6.777H17.0007C16.9947 6.777 17.0037 6.771 17.0277 6.759C17.0217 6.771 17.0127 6.783 17.0007 6.795C16.9887 6.807 16.9767 6.819 16.9647 6.831C16.9527 6.843 16.9407 6.858 16.9287 6.876C16.8987 6.906 16.8687 6.942 16.8387 6.984C16.8087 7.02 16.7877 7.047 16.7757 7.065C16.7697 7.083 16.7577 7.11 16.7397 7.146C16.7217 7.176 16.7067 7.2 16.6947 7.218C16.6827 7.236 16.6707 7.257 16.6587 7.281C16.6527 7.293 16.6497 7.302 16.6497 7.308V7.326C16.6497 7.332 16.6467 7.338 16.6407 7.344C16.6407 7.35 16.6407 7.356 16.6407 7.362C16.6287 7.386 16.6107 7.425 16.5867 7.479C16.5687 7.527 16.5597 7.572 16.5597 7.614C16.5477 7.62 16.5387 7.635 16.5327 7.659C16.5267 7.683 16.5237 7.704 16.5237 7.722Z" fill="black"/>
</svg>
